<svg width="48" height="51" viewBox="0 0 48 51" fill="none" xmlns="http://www.w3.org/2000/svg">
<path d="M3.77148 51C3.79092 45.902 3.81683 40.8039 3.82978 35.7058C3.83626 31.0288 3.81035 26.3583 3.86217 21.6813C3.86865 21.1825 4.14072 20.4894 4.52291 20.2109C10.8582 15.631 17.226 11.103 23.5872 6.56853C23.6844 6.49728 23.8074 6.45841 23.9888 6.36772C27.0075 8.51836 30.0456 10.6884 33.0837 12.8585C36.2967 15.1517 39.4903 17.4772 42.7421 19.725C43.662 20.3598 44.0571 21.0271 44.0507 22.1931C43.9924 31.288 44.0183 40.3764 44.0248 49.4712C44.0248 49.9765 44.0636 50.4883 44.0831 50.9935C30.648 51 17.213 51 3.77148 51ZM5.5205 49.3417C17.8284 49.3417 30.0391 49.3417 42.2952 49.3417C42.334 48.9789 42.3859 48.6874 42.3859 48.3959C42.3923 39.7286 42.4053 31.0548 42.3535 22.3874C42.3535 21.8757 41.9454 21.189 41.5178 20.8781C35.9793 16.8618 30.3954 12.9168 24.8568 8.91351C24.1378 8.39528 23.6844 8.4212 22.9847 8.93295C17.4786 12.9103 11.9465 16.8618 6.39501 20.7809C5.68245 21.2862 5.44277 21.8238 5.44924 22.6724C5.47515 31.126 5.4622 39.5861 5.46868 48.0396C5.4622 48.4542 5.50107 48.8688 5.5205 49.3417Z" fill="black"/>
<path d="M0.0142204 20.9234C0.0142204 19.6084 -0.0311249 18.559 0.0401313 17.5225C0.0595648 17.2116 0.357546 16.8359 0.629615 16.6416C8.35767 11.0965 16.0987 5.56446 23.8915 0C24.2867 0.265591 24.6818 0.505271 25.0511 0.770862C32.1702 5.86244 39.2699 10.9735 46.415 16.0197C47.4514 16.7517 48.0539 17.4966 47.8595 18.8052C47.7688 19.4076 47.8466 20.0424 47.8466 20.9364C47.2506 20.5283 46.8749 20.2756 46.5121 20.0165C39.3282 14.8796 32.1313 9.74914 24.9733 4.57335C24.183 4.0033 23.6713 4.00978 22.8875 4.57983C15.723 9.74914 8.53258 14.8796 1.34218 20.0165C0.97294 20.2756 0.597226 20.5218 0.0142204 20.9234Z" fill="black"/>
<path d="M25.7116 18.4294C25.7116 19.4983 25.7116 20.4246 25.7116 21.2732C27.1367 21.6748 28.4582 22.0441 29.8833 22.4457C29.5594 23.2943 29.3262 23.9162 29.1124 24.4797C27.8816 24.1947 26.7545 23.7996 25.6079 23.6959C23.4184 23.4951 22.071 24.266 21.6953 25.73C21.3261 27.181 22.0775 28.3211 24.0662 29.3252C25.4265 30.0118 26.8711 30.5754 28.1407 31.3981C30.2655 32.7779 31.0234 35.0775 30.3043 37.4095C29.7472 39.2103 28.4776 40.3245 26.7545 40.9723C26.3593 41.1213 25.9448 41.225 25.4848 41.361C25.4848 42.4039 25.4848 43.4145 25.4848 44.5222C24.8111 44.5222 24.2087 44.5222 23.4637 44.5222C23.4637 43.5051 23.4637 42.5076 23.4637 41.4905C22.5115 41.3156 21.6694 41.2249 20.8661 40.9917C20.1082 40.7715 19.3892 40.4023 18.5859 40.0719C18.8451 39.314 19.0588 38.6921 19.292 38.0119C20.2961 38.3617 21.2289 38.7051 22.1747 39.0031C22.5763 39.1261 23.0103 39.178 23.4314 39.2103C25.5172 39.3852 27.1885 38.4589 27.6549 36.8848C28.1213 35.3107 27.3181 33.8596 25.3423 32.8426C24.2864 32.2985 23.1658 31.8839 22.1164 31.3398C20.0888 30.2968 18.6637 28.7875 18.9034 26.3259C19.143 23.8125 20.7171 22.4068 23.0492 21.7331C23.2111 21.6878 23.3731 21.6425 23.684 21.5582C23.684 20.5607 23.684 19.5242 23.684 18.4294C24.3966 18.4294 24.9666 18.4294 25.7116 18.4294Z" fill="black"/>
</svg>
