<svg width="27" height="25" viewBox="0 0 27 25" fill="none" xmlns="http://www.w3.org/2000/svg">
<path d="M0.0288543 24.9998H5.41913V7.14729H0.0288543V24.9998ZM21.0285 6.5289C18.4125 6.5289 16.0718 7.47818 14.4114 9.57351V7.08857H9.00132V25H14.4114V15.314C14.4114 13.2669 16.2987 11.27 18.6627 11.27C21.0267 11.27 21.6097 13.2669 21.6097 15.2639V24.9982H27V14.8652C26.9998 7.82675 23.6463 6.5289 21.0285 6.5289ZM2.69879 5.36322C4.18851 5.36322 5.39759 4.16179 5.39759 2.68151C5.39759 1.20123 4.18851 0 2.69879 0C1.20908 0 0 1.20143 0 2.68171C0 4.16199 1.20908 5.36322 2.69879 5.36322Z" fill="white"/>
</svg>
