<svg width="48" height="44" viewBox="0 0 48 44" fill="none" xmlns="http://www.w3.org/2000/svg">
<path d="M27.0834 6.11895e-06C38.1507 6.11895e-06 47.1439 8.99324 47.1099 20.086C47.0759 31.1873 38.0232 40.0531 27.0749 40.0531C16.1266 40.0616 6.93785 31.1108 7.04835 19.8055C7.15885 8.84024 16.1181 -0.00849411 27.0834 6.11895e-06ZM27.0834 35.5394C35.8046 35.4629 42.3753 28.4928 42.5708 20.4175C42.7748 11.7303 35.7791 4.56463 27.1514 4.53913C18.5832 4.51362 11.6215 11.4243 11.579 19.9415C11.545 28.4163 18.3536 35.4799 27.0834 35.5394Z" fill="black"/>
<path d="M9.35172 31.9438C10.4568 33.6184 11.7403 35.1229 13.2618 36.4575C12.8368 36.806 12.4288 37.1545 12.0123 37.486C9.61523 39.4495 7.20966 41.4131 4.8126 43.3766C3.24006 44.6602 0.732495 43.8612 0.137479 41.8976C-0.22803 40.6736 0.145979 39.4665 1.13201 38.6505C3.82658 36.4405 6.52965 34.2304 9.22422 32.0204C9.26672 32.0034 9.30072 31.9778 9.35172 31.9438Z" fill="black"/>
<path d="M25.6979 28.1018C24.9924 27.8297 24.2869 27.6002 23.6068 27.2942C21.9918 26.5802 20.5043 25.6622 19.2717 24.3872C17.8437 22.8996 16.9512 21.1401 16.6707 19.083C16.5007 17.808 16.5007 16.5329 16.9342 15.3089C17.5292 13.6429 18.6852 12.6483 20.4533 12.3508C22.5698 11.9938 24.6099 13.4389 25.0519 15.3259C25.4174 16.8985 25.0434 18.318 23.9384 19.5165C23.3603 20.1455 22.6463 20.5621 21.8303 20.7746C20.6403 21.0976 20.4533 21.8286 20.5043 22.7721C20.5638 23.8431 21.1928 24.6082 21.9578 25.2627C22.9523 26.1127 24.1169 26.6822 25.3069 27.2092C25.3494 27.2262 25.4004 27.2517 25.4429 27.2687C25.7914 27.4132 25.8679 27.6937 25.6979 28.1018Z" fill="black"/>
<path d="M36.9517 27.4812C36.8837 27.6937 36.8242 27.8637 36.7477 28.0933C36.1442 27.8722 35.5577 27.6937 34.9967 27.4557C33.6621 26.8862 32.3956 26.1892 31.2651 25.2712C29.276 23.6476 28.035 21.5991 27.6865 19.032C27.508 17.7315 27.525 16.4479 27.9925 15.2069C28.6215 13.5409 29.8115 12.6058 31.5881 12.3338C33.5091 12.0363 35.6002 13.3369 36.1017 15.3769C36.5012 17.0005 35.8892 19.0915 34.2231 20.1285C33.7471 20.4261 33.2116 20.6386 32.6846 20.8171C31.9536 21.0636 31.5541 21.5821 31.5201 22.4406C31.4861 23.5031 31.9621 24.3277 32.7101 25.0247C33.6876 25.9342 34.8522 26.5377 36.0592 27.0817C36.3567 27.2092 36.6457 27.3367 36.9517 27.4812Z" fill="black"/>
</svg>
