<svg width="57" height="36" viewBox="0 0 57 36" fill="none" xmlns="http://www.w3.org/2000/svg">
<path d="M56.4178 22.4722C56.0469 23.7706 55.1194 24.4994 53.9534 25.0956C47.4877 28.4742 41.0353 31.9058 34.5828 35.3109C32.8206 36.2384 31.0584 36.2383 29.3228 35.2579C26.6994 33.7872 24.0893 32.29 21.4659 30.8061C21.4129 30.7796 21.3731 30.7531 21.3201 30.7266C20.8299 30.4219 20.6709 29.9979 20.9094 29.5739C21.1479 29.1367 21.6249 29.0042 22.1416 29.2957C23.6255 30.1304 25.1095 30.9783 26.5934 31.813C27.7328 32.449 28.859 33.085 29.9985 33.7342C31.2572 34.4629 32.5291 34.5027 33.8276 33.8137C40.492 30.2894 47.1565 26.765 53.8209 23.2407C54.5232 22.8697 54.8411 22.3 54.7484 21.6375C54.6557 21.028 54.2052 20.5113 53.5692 20.4053C53.291 20.3655 52.9862 20.392 52.708 20.4715C47.7395 21.9555 42.7709 23.4527 37.8024 24.9498C37.5904 25.0161 37.3784 25.1618 37.2327 25.3208C35.5633 27.2552 32.9001 27.7057 30.767 26.341C28.6868 25.0161 26.6464 23.6514 24.606 22.2867C24.1025 21.9555 23.97 21.4917 24.235 21.0678C24.5132 20.6305 24.9902 20.5775 25.5334 20.922C27.5341 22.2337 29.5083 23.5587 31.5089 24.8571C33.0989 25.8906 35.0598 25.5328 36.1065 24.0621C36.5172 23.4924 36.4642 23.0552 35.8812 22.6577C32.2111 20.1536 28.5676 17.6097 24.871 15.1585C22.6981 13.7143 20.2867 13.4096 17.7428 13.9793C15.2519 14.5358 12.761 15.0525 10.2701 15.5825C10.0979 15.6223 9.92563 15.6753 9.70039 15.7283C10.4424 19.2261 11.1843 22.6974 11.9263 26.1555C12.5623 26.076 13.132 25.9833 13.715 25.9303C15.6626 25.7713 17.2658 26.6723 18.8425 27.6395C19.2135 27.8647 19.293 28.2622 19.081 28.6597C18.8557 29.0704 18.498 29.2294 18.0608 29.0307C17.5573 28.8054 17.0803 28.5272 16.6033 28.2622C15.1326 27.4142 13.5957 27.4407 12.019 27.8912C11.8733 27.931 11.7276 28.1032 11.6613 28.2489C11.0916 29.4546 10.1641 30.1966 8.83918 30.4881C6.34828 31.0446 3.87065 31.6276 1.39301 32.2105C1.27376 32.237 1.14127 32.2635 1.00877 32.29C0.518542 32.3695 0.107811 32.1045 0.0150646 31.6408C-0.0644319 31.2168 0.174058 30.8061 0.651037 30.6868C1.89648 30.3821 3.15518 30.1039 4.40062 29.8124C5.75206 29.4944 7.11675 29.2029 8.48144 28.8717C9.88588 28.5404 10.5219 27.5202 10.2304 26.1158C9.54139 22.8564 8.85243 19.5838 8.13696 16.3245C7.85872 15.0128 6.83851 14.3371 5.52682 14.6021C4.06939 14.8935 2.6252 15.2115 1.16776 15.5163C0.57154 15.6355 0.160809 15.4235 0.0283148 14.9465C-0.0909299 14.4828 0.200556 14.0588 0.770281 13.9263C2.33371 13.5818 3.8839 13.2374 5.44733 12.9459C6.65302 12.7206 7.69973 13.0916 8.58744 13.8998C8.83918 14.1251 9.05117 14.1648 9.36915 14.0986C12.231 13.4759 15.1061 12.8531 17.9813 12.2834C20.7504 11.7269 23.387 12.2172 25.7322 13.7673C29.495 16.2582 33.2048 18.8419 36.9279 21.3858C37.5242 21.7965 37.8554 22.3662 38.0144 23.1082C38.1866 23.0684 38.3324 23.0419 38.4914 23.0022C42.8637 21.6905 47.2625 20.4583 51.595 19.0406C53.6355 18.3781 55.6096 18.8021 56.4178 21.2135C56.4178 21.664 56.4178 22.0747 56.4178 22.4722Z" fill="black"/>
<path d="M6.21585 16.2052C6.66633 16.2052 7.05057 16.6027 7.03732 17.0532C7.02407 17.4904 6.65308 17.8482 6.21585 17.8482C5.75212 17.8482 5.38114 17.4639 5.39439 17.0002C5.40764 16.563 5.77862 16.2052 6.21585 16.2052Z" fill="black"/>
<path d="M48.4417 5.16846C48.6007 5.4202 48.7332 5.65869 48.879 5.89718C49.1042 6.28141 49.3427 6.6524 49.5547 7.03663C49.6209 7.15588 49.6739 7.32812 49.6739 7.46062C49.6872 8.03034 49.6607 8.58681 49.6607 9.15654C49.6607 10.0972 49.6739 11.0247 49.6739 11.9522C49.6739 12.3894 49.5812 12.5219 49.144 12.6411C49.144 12.8001 49.144 12.9856 49.144 13.1446C49.1307 14.0058 48.4682 14.6948 47.607 14.708C47.0638 14.7213 46.5073 14.7213 45.9641 14.708C45.1029 14.6815 44.4272 14.0058 44.4272 13.1446C44.4272 12.9856 44.4272 12.8134 44.4272 12.6279C44.3609 12.6279 44.3079 12.6146 44.2417 12.6146C43.6322 12.6146 43.036 12.6146 42.4265 12.6146C42.1615 12.6146 41.9628 12.4689 41.8965 12.2304C41.8303 12.0184 41.9098 11.7667 42.1085 11.6607C42.2278 11.5944 42.3735 11.5679 42.506 11.5679C44.4537 11.5679 46.4146 11.5679 48.3622 11.5679C48.4417 11.5679 48.5212 11.5679 48.614 11.5679C48.614 11.038 48.614 10.5345 48.614 10.0045C48.5477 10.0045 48.4947 9.99125 48.4285 9.99125C47.66 9.99125 46.8783 9.99125 46.1098 9.99125C45.6726 9.99125 45.4871 9.79251 45.4739 9.36853C45.4739 8.9313 45.4606 8.50732 45.6594 8.09659C46.0304 7.31487 46.6663 6.89089 47.5275 6.83789C47.7395 6.82464 47.9648 6.83789 48.2033 6.83789C48.1768 6.78489 48.1635 6.74515 48.1503 6.7054C47.8853 6.26817 47.6203 5.83094 47.3553 5.38046C47.3023 5.28771 47.2493 5.26121 47.1433 5.26121C42.5325 5.26121 37.9217 5.26121 33.2977 5.26121C33.2314 5.26121 33.1519 5.28771 33.1254 5.32746C32.8074 5.81769 32.5027 6.30792 32.1715 6.85114C32.304 6.85114 32.41 6.85114 32.5159 6.85114C32.8604 6.85114 33.2049 6.85114 33.5494 6.95714C34.3974 7.26187 34.9538 8.03034 34.9671 8.91805C34.9671 9.07704 34.9671 9.23603 34.9671 9.39503C34.9671 9.79251 34.7551 9.99125 34.3709 9.99125C33.5892 9.99125 32.8074 9.99125 32.039 9.99125C31.9727 9.99125 31.9065 9.99125 31.827 9.99125C31.827 10.5212 31.827 11.0247 31.827 11.5547C31.8932 11.5547 31.9595 11.5679 32.039 11.5679C34.0396 11.5679 36.0535 11.5679 38.0542 11.5679C38.1337 11.5679 38.1999 11.5679 38.2794 11.5812C38.5312 11.6209 38.7167 11.8064 38.7299 12.0714C38.7432 12.3364 38.5842 12.5616 38.3192 12.6146C38.2529 12.6279 38.1735 12.6279 38.1072 12.6411C37.4845 12.6411 36.875 12.6411 36.2655 12.6411C36.1993 12.6411 36.133 12.6411 36.0403 12.6411C36.0403 12.8001 36.0403 12.9326 36.0403 13.0784C36.0403 14.0588 35.3646 14.7345 34.3841 14.7345C33.8939 14.7345 33.4037 14.7345 32.9267 14.7345C31.986 14.7345 31.3103 14.0456 31.3103 13.1049C31.3103 12.9591 31.3103 12.8001 31.3103 12.6544C30.8598 12.5086 30.7803 12.3894 30.7803 11.9257C30.7803 10.985 30.7803 10.0443 30.7803 9.10354C30.7803 8.53382 30.7803 7.96409 30.7803 7.39437C30.7803 7.20888 30.82 7.06313 30.926 6.90414C31.2705 6.37416 31.6017 5.83093 31.933 5.28771C31.9595 5.23471 31.9992 5.18171 32.039 5.10222C31.8667 5.06247 31.7077 5.03597 31.5487 4.99622C31.2043 4.92998 31.0188 4.67824 31.0718 4.36025C31.138 4.05551 31.403 3.88327 31.7475 3.96277C31.986 4.00251 32.2245 4.05551 32.4497 4.10851C32.5424 4.13501 32.5954 4.12176 32.6484 4.01577C32.9002 3.47254 33.1387 2.94256 33.4037 2.41259C33.9866 1.22014 34.9273 0.557667 36.2523 0.531168C38.9154 0.504669 41.5785 0.517919 44.2417 0.531168C45.2089 0.531168 46.0171 0.941902 46.6398 1.68387C46.9711 2.08135 47.1433 2.55833 47.3553 3.02206C47.5275 3.3798 47.6998 3.73753 47.872 4.09526C47.8985 4.13501 47.978 4.16151 48.031 4.16151C48.3622 4.09526 48.7067 4.02901 49.038 3.96277C49.4355 3.89652 49.7534 4.18801 49.6872 4.55899C49.6474 4.78423 49.4885 4.94323 49.2367 4.99622C48.9717 5.06247 48.72 5.11547 48.4417 5.16846ZM46.7326 4.21451C46.7061 4.14826 46.6796 4.09526 46.6663 4.05551C46.5073 3.71103 46.3351 3.36655 46.1893 3.02206C45.8316 2.18735 45.2354 1.67062 44.2947 1.60437C44.0694 1.59112 43.8442 1.60437 43.619 1.60437C41.4858 1.60437 39.3394 1.60437 37.2062 1.60437C36.7823 1.60437 36.3583 1.59112 35.9343 1.63087C35.2983 1.69712 34.8081 2.02835 34.5034 2.55833C34.2516 2.96906 34.0794 3.41954 33.8674 3.84352C33.8144 3.96277 33.7614 4.06876 33.6951 4.20126C38.0542 4.21451 42.3735 4.21451 46.7326 4.21451ZM45.4871 12.6411C45.4871 12.8531 45.4606 13.0784 45.4871 13.2771C45.5136 13.5023 45.7256 13.6746 45.9641 13.6746C46.5073 13.6746 47.0638 13.6746 47.607 13.6746C47.819 13.6746 48.031 13.5156 48.0575 13.3169C48.0973 13.0916 48.084 12.8664 48.0973 12.6411C47.2095 12.6411 46.3616 12.6411 45.4871 12.6411ZM32.3305 12.6411C32.3305 12.8531 32.3172 13.0386 32.3305 13.2109C32.357 13.4759 32.5557 13.6746 32.8339 13.6746C33.3639 13.6746 33.9071 13.6746 34.4371 13.6746C34.6624 13.6746 34.8743 13.5288 34.9141 13.3169C34.9538 13.0916 34.9406 12.8664 34.9538 12.6411C34.0794 12.6411 33.2182 12.6411 32.3305 12.6411ZM31.827 7.9111C31.827 8.26883 31.827 8.60006 31.827 8.94455C32.5159 8.94455 33.2049 8.94455 33.8939 8.94455C33.9336 8.45432 33.4964 7.95084 32.9664 7.9111C32.5822 7.8846 32.2112 7.9111 31.827 7.9111ZM48.614 7.9111C48.2563 7.9111 47.8985 7.9111 47.554 7.9111C47.1168 7.9111 46.7326 8.18933 46.5868 8.58682C46.5471 8.69281 46.5338 8.81205 46.5073 8.9313C47.2228 8.9313 47.9118 8.9313 48.6007 8.9313C48.614 8.60006 48.614 8.25558 48.614 7.9111Z" fill="black"/>
<path d="M40.2265 6.85115C41.3129 6.85115 42.3994 6.85115 43.4858 6.85115C44.3868 6.85115 44.877 7.63286 44.4663 8.44108C44.2676 8.83856 44.0556 9.23604 43.8701 9.64678C43.7508 9.89852 43.5653 10.0045 43.2871 10.0045C42.3464 9.99126 41.3924 9.99126 40.4385 9.99126C39.6435 9.99126 38.8485 10.0045 38.0536 10.0045C37.7356 10.0045 37.4309 10.0045 37.1129 10.0045C36.8611 10.0045 36.6756 9.89851 36.5696 9.66002C36.3577 9.23604 36.1457 8.81206 35.9337 8.38808C35.5759 7.65936 36.0662 6.8644 36.8744 6.85115C37.9873 6.85115 39.1135 6.85115 40.2265 6.85115ZM36.8744 7.9111C37.0466 8.25559 37.2056 8.57357 37.3646 8.89156C37.3779 8.91806 37.4309 8.94456 37.4706 8.95781C37.5634 8.97105 37.6561 8.98431 37.7621 8.98431C38.3981 8.98431 39.0208 8.97106 39.6568 8.97106C40.1205 8.97106 40.5975 8.98431 41.0612 8.98431C41.6442 8.98431 42.2271 8.95781 42.8234 8.97106C43.0089 8.97106 43.1281 8.91806 43.1811 8.74581C43.2209 8.62657 43.2871 8.52057 43.3401 8.41458C43.4196 8.25559 43.4991 8.09659 43.5786 7.92435C41.3262 7.9111 39.1135 7.9111 36.8744 7.9111Z" fill="black"/>
<path d="M39.7764 12.0979C39.7764 11.8064 40.0016 11.5812 40.2931 11.5812C40.5846 11.5812 40.8098 11.8064 40.8231 12.0979C40.8231 12.3894 40.5978 12.6279 40.3063 12.6279C40.0016 12.6411 39.7764 12.4027 39.7764 12.0979Z" fill="black"/>
</svg>
