<svg width="25" height="25" viewBox="0 0 25 25" fill="none" xmlns="http://www.w3.org/2000/svg">
<path d="M17.8722 0H6.81182C3.05579 0 0 3.05593 0 6.81197V17.8723C0 21.6285 3.05579 24.6843 6.81182 24.6843H17.8722C21.6285 24.6843 24.6843 21.6283 24.6843 17.8723V6.81197C24.6844 3.05593 21.6285 0 17.8722 0ZM22.4943 17.8723C22.4943 20.4209 20.4209 22.4942 17.8723 22.4942H6.81182C4.26341 22.4943 2.19011 20.4209 2.19011 17.8723V6.81197C2.19011 4.26356 4.26341 2.19011 6.81182 2.19011H17.8722C20.4207 2.19011 22.4942 4.26356 22.4942 6.81197V17.8723H22.4943Z" fill="white"/>
<path d="M12.3423 5.98206C8.8351 5.98206 5.98183 8.83533 5.98183 12.3426C5.98183 15.8497 8.8351 18.7028 12.3423 18.7028C15.8496 18.7028 18.7029 15.8497 18.7029 12.3426C18.7029 8.83533 15.8496 5.98206 12.3423 5.98206ZM12.3423 16.5125C10.0429 16.5125 8.17194 14.6419 8.17194 12.3424C8.17194 10.0428 10.0427 8.17202 12.3423 8.17202C14.642 8.17202 16.5127 10.0428 16.5127 12.3424C16.5127 14.6419 14.6418 16.5125 12.3423 16.5125Z" fill="white"/>
<path d="M18.9695 4.12494C18.5476 4.12494 18.1331 4.29577 17.8351 4.59508C17.5356 4.89294 17.3635 5.3076 17.3635 5.73102C17.3635 6.15313 17.5358 6.56764 17.8351 6.86696C18.1329 7.16481 18.5476 7.3371 18.9695 7.3371C19.393 7.3371 19.8062 7.16481 20.1055 6.86696C20.4048 6.56764 20.5756 6.15298 20.5756 5.73102C20.5756 5.3076 20.4048 4.89294 20.1055 4.59508C19.8076 4.29577 19.393 4.12494 18.9695 4.12494Z" fill="white"/>
</svg>
