<svg width="50" height="40" viewBox="0 0 50 40" fill="none" xmlns="http://www.w3.org/2000/svg">
<path d="M50 27.5355C49.6712 28.6863 48.8493 29.3321 47.8159 29.8605C42.0857 32.8547 36.3673 35.896 30.6488 38.9137C29.0871 39.7357 27.5254 39.7357 25.9871 38.8668C23.6622 37.5634 21.349 36.2365 19.024 34.9214C18.977 34.8979 18.9418 34.8744 18.8948 34.8509C18.4604 34.5809 18.3195 34.2051 18.5308 33.8294C18.7422 33.4419 19.1649 33.3244 19.6229 33.5828C20.938 34.3225 22.2531 35.074 23.5683 35.8138C24.5781 36.3774 25.5762 36.941 26.586 37.5164C27.7015 38.1622 28.8288 38.1975 29.9795 37.5869C35.8858 34.4634 41.7922 31.34 47.6985 28.2166C48.3209 27.8878 48.6027 27.3829 48.5205 26.7958C48.4383 26.2556 48.039 25.7977 47.4754 25.7037C47.2288 25.6685 46.9588 25.692 46.7122 25.7624C42.3088 27.0776 37.9055 28.4044 33.5022 29.7313C33.3143 29.79 33.1264 29.9192 32.9973 30.0601C31.5177 31.7745 29.1575 32.1737 27.267 30.9643C25.4235 29.79 23.6152 28.5806 21.8069 27.3711C21.3607 27.0776 21.2433 26.6666 21.4781 26.2908C21.7247 25.9034 22.1474 25.8564 22.6289 26.1617C24.4019 27.3242 26.1515 28.4984 27.9246 29.6491C29.3337 30.565 31.0715 30.248 31.9992 28.9446C32.3632 28.4397 32.3162 28.0522 31.7995 27.6999C28.547 25.4806 25.3178 23.2261 22.0418 21.0538C20.116 19.7739 17.979 19.5038 15.7244 20.0088C13.5169 20.5019 11.3094 20.9599 9.10183 21.4296C8.94918 21.4648 8.79653 21.5118 8.59692 21.5587C9.25448 24.6587 9.91205 27.7351 10.5696 30.7999C11.1332 30.7294 11.6382 30.6472 12.1548 30.6002C13.8809 30.4593 15.3017 31.2578 16.699 32.115C17.0278 32.3146 17.0983 32.6669 16.9104 33.0191C16.7108 33.3832 16.3938 33.5241 16.0063 33.3479C15.5601 33.1483 15.1373 32.9017 14.7146 32.6669C13.4112 31.9154 12.0491 31.9389 10.6518 32.3381C10.5226 32.3733 10.3935 32.526 10.3348 32.6551C9.82985 33.7237 9.00789 34.3812 7.83367 34.6396C5.62613 35.1327 3.43034 35.6494 1.23454 36.1661C1.12886 36.1895 1.01144 36.213 0.894018 36.2365C0.459555 36.307 0.0955465 36.0721 0.0133509 35.6611C-0.0571024 35.2854 0.154258 34.9214 0.576978 34.8157C1.68075 34.5456 2.79626 34.299 3.90003 34.0407C5.09773 33.7589 6.30718 33.5006 7.51663 33.207C8.76131 32.9135 9.32493 32.0093 9.0666 30.7646C8.45601 27.876 7.84541 24.9757 7.21133 22.0871C6.96475 20.9246 6.0606 20.3258 4.89812 20.5606C3.60647 20.819 2.32657 21.1008 1.03492 21.3709C0.506524 21.4765 0.142516 21.2887 0.0250939 20.8659C-0.0805862 20.455 0.177742 20.0792 0.682657 19.9618C2.06824 19.6565 3.44208 19.3512 4.82766 19.0929C5.89621 18.8932 6.82384 19.222 7.61057 19.9383C7.83367 20.1379 8.02155 20.1731 8.30336 20.1144C10.8397 19.5625 13.3877 19.0107 15.9358 18.5058C18.3899 18.0126 20.7266 18.447 22.805 19.8209C26.1398 22.0284 29.4276 24.3182 32.7272 26.5727C33.2556 26.9367 33.5491 27.4416 33.69 28.0991C33.8427 28.0639 33.9719 28.0404 34.1128 28.0052C37.9877 26.8427 41.8861 25.7507 45.7258 24.4943C47.5341 23.9072 49.2837 24.2829 50 26.42C50 26.8192 50 27.1833 50 27.5355Z" fill="black"/>
<path d="M5.5086 21.9814C5.90783 21.9814 6.24836 22.3337 6.23662 22.7329C6.22487 23.1204 5.89609 23.4375 5.5086 23.4375C5.09762 23.4375 4.76884 23.097 4.78058 22.686C4.79232 22.2985 5.1211 21.9814 5.5086 21.9814Z" fill="black"/>
<path d="M27.5371 20.6781C27.5489 18.6114 27.5606 16.5448 27.5606 14.4782C27.5606 12.5877 27.5489 10.6854 27.5723 8.79492C27.5723 8.5953 27.6898 8.31349 27.8424 8.19606C30.414 6.34079 32.9972 4.50901 35.5688 2.66548C35.604 2.642 35.6627 2.61851 35.7332 2.58328C36.9544 3.45221 38.1873 4.33287 39.4202 5.21354C40.7236 6.14118 42.0153 7.08055 43.3304 7.99645C43.7061 8.25478 43.8588 8.52485 43.8588 8.99454C43.8353 12.6816 43.8471 16.3687 43.8471 20.0557C43.8471 20.2553 43.8588 20.4667 43.8705 20.6781C38.4339 20.6781 32.9972 20.6781 27.5371 20.6781ZM28.2534 19.997C33.2438 19.997 38.199 19.997 43.166 19.997C43.1778 19.8444 43.2012 19.7269 43.2012 19.6095C43.2012 16.0986 43.213 12.5759 43.1895 9.06499C43.1895 8.85363 43.0251 8.58356 42.849 8.45439C40.6062 6.82223 38.34 5.22528 36.0972 3.60486C35.8036 3.3935 35.6275 3.40524 35.3339 3.6166C33.1029 5.22528 30.8602 6.83397 28.6057 8.41917C28.3121 8.61879 28.2182 8.84189 28.2182 9.18241C28.2299 12.6111 28.2182 16.0399 28.2299 19.4686C28.2299 19.6447 28.2416 19.8091 28.2534 19.997Z" fill="black"/>
<path d="M26.0223 8.47789C26.0223 7.94949 25.9988 7.51502 26.0341 7.10404C26.0458 6.97488 26.1632 6.82223 26.2689 6.75178C29.4041 4.50901 32.5392 2.26625 35.6979 0C35.8623 0.10568 36.0149 0.199619 36.1676 0.317041C39.0562 2.38367 41.933 4.4503 44.8334 6.49345C45.2561 6.787 45.5027 7.0923 45.4205 7.6207C45.3852 7.86729 45.4205 8.12562 45.4205 8.48963C45.1739 8.32523 45.0212 8.21956 44.8803 8.11388C41.9683 6.0355 39.0444 3.95713 36.1441 1.85527C35.8271 1.62043 35.6157 1.63217 35.2987 1.85527C32.3983 3.94539 29.4745 6.0355 26.5625 8.11388C26.4098 8.21956 26.2572 8.3135 26.0223 8.47789Z" fill="black"/>
<path d="M36.4374 7.46805C36.4374 7.90251 36.4374 8.27826 36.4374 8.61879C37.0128 8.78318 37.5529 8.93583 38.1283 9.08848C37.9992 9.429 37.9052 9.68733 37.8113 9.91043C37.3181 9.79301 36.8602 9.64036 36.3905 9.59339C35.4981 9.5112 34.9579 9.82824 34.8053 10.4153C34.6526 11.0025 34.9579 11.4604 35.7681 11.8714C36.32 12.1532 36.9071 12.3763 37.4238 12.7168C38.281 13.2804 38.598 14.2081 38.3044 15.1592C38.0813 15.8872 37.5647 16.3452 36.8602 16.6035C36.6958 16.6622 36.5314 16.7092 36.3435 16.7562C36.3435 17.1789 36.3435 17.5898 36.3435 18.0361C36.0734 18.0361 35.8268 18.0361 35.5215 18.0361C35.5215 17.6251 35.5215 17.2141 35.5215 16.8031C35.134 16.7327 34.7935 16.6974 34.4647 16.6035C34.1594 16.5096 33.8659 16.3687 33.5371 16.2277C33.6428 15.9225 33.725 15.6641 33.8189 15.3941C34.2299 15.535 34.6056 15.6759 34.9931 15.7933C35.1575 15.8403 35.3337 15.8637 35.4981 15.8755C36.3435 15.9459 37.0245 15.5702 37.2124 14.9361C37.4003 14.302 37.0715 13.7149 36.273 13.2922C35.8503 13.0691 35.3924 12.9047 34.9697 12.6816C34.1477 12.2589 33.5723 11.6483 33.6663 10.6502C33.7602 9.62862 34.406 9.06499 35.3454 8.78318C35.4159 8.75969 35.4746 8.74795 35.6037 8.71273C35.6037 8.31349 35.6037 7.89077 35.6037 7.44456C35.909 7.46805 36.1321 7.46805 36.4374 7.46805Z" fill="black"/>
</svg>
