<svg width="41" height="47" viewBox="0 0 41 47" fill="none" xmlns="http://www.w3.org/2000/svg">
<path d="M19.9367 25.3381C19.522 25.3381 19.1816 24.9977 19.1816 24.5831V23.1472C19.1816 22.7325 19.522 22.3921 19.9367 22.3921C20.3514 22.3921 20.6918 22.7325 20.6918 23.1472V24.5831C20.6918 24.9977 20.3576 25.3381 19.9367 25.3381Z" fill="black"/>
<path d="M19.9369 39.5297C17.4241 39.5297 15.3755 37.6049 15.3755 35.2221C15.3755 34.8074 15.7159 34.4671 16.1306 34.4671C16.5452 34.4671 16.8856 34.8074 16.8856 35.2221C16.8856 36.757 18.2534 38.0134 19.9369 38.0134C21.6203 38.0134 22.9881 36.757 22.9881 35.2221C22.9881 33.6872 21.6141 32.4308 19.9369 32.4308C17.4241 32.4308 15.3755 30.506 15.3755 28.1232C15.3755 25.7528 17.4241 23.8156 19.9369 23.8156C22.4496 23.8156 24.4982 25.759 24.4982 28.1294C24.4982 28.5441 24.1578 28.8845 23.7432 28.8845C23.3285 28.8845 22.9881 28.5441 22.9881 28.1294C22.9881 26.5945 21.6203 25.3381 19.9369 25.3381C18.2534 25.3381 16.8856 26.5945 16.8856 28.1294C16.8856 29.6643 18.2534 30.9207 19.9369 30.9207C22.4496 30.9207 24.4982 32.8455 24.4982 35.2283C24.492 37.5987 22.4496 39.5297 19.9369 39.5297Z" fill="black"/>
<path d="M19.9367 41.1575C19.522 41.1575 19.1816 40.8171 19.1816 40.4024V38.7747C19.1816 38.36 19.522 38.0196 19.9367 38.0196C20.3514 38.0196 20.6918 38.36 20.6918 38.7747V40.4024C20.6918 40.8171 20.3576 41.1575 19.9367 41.1575Z" fill="black"/>
<path d="M34.8525 33.2788C34.8339 33.2788 34.8091 33.2788 34.7906 33.2788C34.3759 33.2478 34.0664 32.8826 34.1036 32.4618C34.1345 32.0719 34.1531 31.6696 34.1531 31.2735C34.1531 25.7466 30.9348 20.7211 25.934 18.394C25.6616 18.4558 25.4141 18.4868 25.1603 18.4868H14.7131C14.4655 18.4868 14.2118 18.4558 13.9395 18.394C11.0368 19.7432 8.66016 22.0641 7.22429 24.9235C7.03862 25.2948 6.58681 25.4495 6.21546 25.2639C5.84412 25.0782 5.68939 24.6264 5.87506 24.255C7.5028 20.9934 10.2384 18.3878 13.5681 16.9086C13.7352 16.8343 13.9271 16.8219 14.0942 16.8776C14.3294 16.9457 14.5274 16.9766 14.7069 16.9766H25.1665C25.3522 16.9766 25.5502 16.9457 25.7792 16.8776C25.9587 16.8281 26.1444 16.8343 26.3053 16.9086C31.9869 19.4275 35.6632 25.0658 35.6632 31.2859C35.6632 31.7253 35.6447 32.1709 35.6137 32.6041C35.5766 32.9817 35.2424 33.2788 34.8525 33.2788Z" fill="black"/>
<path d="M19.937 47C11.266 47 4.21045 39.9444 4.21045 31.2735C4.21045 31.063 4.21664 30.8402 4.22902 30.6298C4.24758 30.2151 4.58798 29.8747 5.00884 29.9057C5.42351 29.9243 5.74535 30.2708 5.73297 30.6855C5.72678 30.8836 5.72678 31.0754 5.72678 31.2735C5.72059 39.1151 12.0954 45.4899 19.937 45.4899C25.3648 45.4899 30.2356 42.4758 32.6618 37.6173C32.8474 37.246 33.2992 37.0912 33.6706 37.2769C34.0419 37.4626 34.1967 37.9144 34.011 38.2857C31.3311 43.6641 25.9404 47 19.937 47Z" fill="black"/>
<path d="M25.1661 18.4868H14.7127C12.726 18.4868 11.1045 16.8652 11.1045 14.8785C11.1045 12.8918 12.726 11.2703 14.7127 11.2703H25.1723C27.159 11.2703 28.7806 12.8918 28.7806 14.8785C28.7806 16.8652 27.159 18.4868 25.1661 18.4868ZM14.7127 12.7742C13.5554 12.7742 12.6146 13.715 12.6146 14.8724C12.6146 16.0297 13.5554 16.9705 14.7127 16.9705H25.1723C26.3297 16.9705 27.2704 16.0297 27.2704 14.8724C27.2704 13.715 26.3297 12.7742 25.1723 12.7742H14.7127Z" fill="black"/>
<path d="M14.1809 12.8361C14.02 12.8361 13.8653 12.7866 13.7415 12.6938C13.6796 12.6505 13.6239 12.5948 13.5806 12.5329C9.5453 7.14834 11.0864 2.43843 11.1545 2.24038C11.2411 1.99282 11.4454 1.80714 11.7053 1.74525C11.959 1.68336 12.2314 1.76382 12.4109 1.95568C12.9988 2.54984 13.8467 3.04496 14.9484 3.41012C17.5231 4.27041 20.401 4.09711 23.0685 2.95213C25.0614 2.09184 26.6025 1.1511 27.4999 0.228921C27.6979 0.0308693 27.9765 -0.0434001 28.2364 0.0246801C28.5025 0.0927602 28.7006 0.30319 28.7687 0.575511C28.8367 0.841643 30.3283 7.17929 26.324 12.5329C26.2806 12.5948 26.2249 12.6443 26.163 12.6938C25.9959 12.8114 25.7793 12.8609 25.5751 12.8299C25.4327 12.8052 25.3028 12.7866 25.179 12.7866H14.7194C14.6018 12.7866 14.4718 12.8052 14.3233 12.8299C14.2738 12.8238 14.2181 12.8361 14.1809 12.8361ZM12.3551 3.84336C12.1942 5.32874 12.3118 8.12003 14.5213 11.2703C14.5832 11.2703 14.6513 11.2641 14.707 11.2641H25.1666C25.2285 11.2641 25.2966 11.2641 25.3523 11.2703C27.6608 7.92198 27.6732 4.14044 27.4813 2.20943C26.4849 2.94594 25.2037 3.66387 23.6441 4.3323C20.6362 5.62582 17.3807 5.79912 14.4594 4.83362C13.6549 4.5613 12.9493 4.23327 12.3551 3.84336Z" fill="black"/>
<path d="M18.3213 12.7742C18.0304 12.7742 17.7519 12.6071 17.6343 12.3224L16.1241 8.86891C15.957 8.48519 16.1303 8.04576 16.5141 7.87247C16.8978 7.70536 17.3372 7.87865 17.5105 8.26238L19.0206 11.7159C19.1878 12.0996 19.0145 12.539 18.6307 12.7123C18.5255 12.7557 18.4265 12.7742 18.3213 12.7742Z" fill="black"/>
<path d="M21.5583 12.7742C21.4593 12.7742 21.3541 12.7557 21.2551 12.7123C20.8713 12.5452 20.7042 12.0996 20.8652 11.7159L22.3753 8.26238C22.5424 7.87866 22.988 7.71155 23.3717 7.87247C23.7555 8.03958 23.9226 8.48519 23.7617 8.86891L22.2515 12.3224C22.1277 12.6009 21.843 12.7742 21.5583 12.7742Z" fill="black"/>
<path d="M39.4074 36.0205H28.3908C27.9761 36.0205 27.6357 35.6801 27.6357 35.2654C27.6357 34.8508 27.9761 34.5104 28.3908 34.5104H39.4012C39.8159 34.5104 40.1563 34.8508 40.1563 35.2654C40.1625 35.6801 39.8221 36.0205 39.4074 36.0205Z" fill="black"/>
<path d="M11.7733 28.5317H0.762883C0.348213 28.5317 0.0078125 28.1913 0.0078125 27.7766C0.0078125 27.362 0.348213 27.0216 0.762883 27.0216H11.7733C12.188 27.0216 12.5284 27.362 12.5284 27.7766C12.5222 28.1913 12.1942 28.5317 11.7733 28.5317Z" fill="black"/>
<path d="M2.48338 30.4256C2.27914 30.4256 2.0749 30.3389 1.92017 30.178L0.199599 28.2841C-0.0665329 27.9932 -0.0665329 27.5538 0.199599 27.2629L1.92636 25.3753C2.20487 25.072 2.68143 25.041 2.99707 25.3257C3.30034 25.6043 3.33129 26.0808 3.04659 26.3965L1.78401 27.7828L3.04659 29.1692C3.3251 29.4724 3.30034 29.9614 2.99707 30.2399C2.84853 30.3699 2.67524 30.4256 2.48338 30.4256Z" fill="black"/>
<path d="M37.6747 37.9144C37.4952 37.9144 37.3095 37.8463 37.1672 37.7163C36.8639 37.4378 36.833 36.9613 37.1177 36.6456L38.3802 35.2593L37.1177 33.8729C36.8391 33.5696 36.8639 33.0931 37.1672 32.8022C37.4704 32.5237 37.9594 32.5484 38.2379 32.8517L39.9585 34.7456C40.2246 35.0364 40.2246 35.4759 39.9585 35.7668L38.2379 37.6606C38.0893 37.8277 37.8851 37.9144 37.6747 37.9144Z" fill="black"/>
<path d="M33.0887 47H6.7912C6.37653 47 6.03613 46.6596 6.03613 46.2449C6.03613 45.8303 6.37653 45.4899 6.7912 45.4899H33.0949C33.5096 45.4899 33.85 45.8303 33.85 46.2449C33.8438 46.6596 33.5034 47 33.0887 47Z" fill="black"/>
</svg>
