<svg width="57" height="25" viewBox="0 0 57 25" fill="none" xmlns="http://www.w3.org/2000/svg">
<path d="M28.4905 19.965C26.2449 19.965 24.4116 18.1317 24.4116 15.8862C24.4116 15.2634 24.9116 14.7634 25.5344 14.7634C26.1572 14.7634 26.6572 15.2634 26.6572 15.8862C26.6572 16.8949 27.4817 17.7107 28.4817 17.7107C29.4904 17.7107 30.3062 16.8949 30.3062 15.8862C30.3062 14.8774 29.4904 14.0617 28.4817 14.0617C26.2361 14.0617 24.4028 12.2372 24.4028 9.98282C24.4028 7.73726 26.2274 5.90397 28.4817 5.90397C30.7272 5.90397 32.5605 7.72849 32.5605 9.98282C32.5605 10.6056 32.0605 11.1056 31.4377 11.1056C30.815 11.1056 30.315 10.6056 30.315 9.98282C30.315 8.97407 29.4992 8.1583 28.4905 8.1583C27.4817 8.1583 26.6659 8.98285 26.6659 9.98282C26.6659 10.9916 27.4905 11.8073 28.4905 11.8073C30.736 11.8073 32.5693 13.6406 32.5693 15.8862C32.5693 18.1317 30.736 19.965 28.4905 19.965Z" fill="black"/>
<path d="M28.4905 8.14952C27.8677 8.14952 27.3677 7.64954 27.3677 7.02675V5.77239C27.3677 5.1496 27.8677 4.64961 28.4905 4.64961C29.1132 4.64961 29.6132 5.1496 29.6132 5.77239V7.02675C29.6132 7.64954 29.1132 8.14952 28.4905 8.14952Z" fill="black"/>
<path d="M28.4905 21.2194C27.8677 21.2194 27.3677 20.7194 27.3677 20.0966V18.8423C27.3677 18.2195 27.8677 17.7195 28.4905 17.7195C29.1132 17.7195 29.6132 18.2195 29.6132 18.8423V20.0966C29.6132 20.7106 29.1132 21.2194 28.4905 21.2194Z" fill="black"/>
<path d="M28.4903 25C21.8326 25 16.4204 19.5879 16.4204 12.9301C16.4204 6.27238 21.8326 0.860229 28.4903 0.860229C35.148 0.860229 40.5602 6.27238 40.5602 12.9301C40.5602 19.5879 35.148 25 28.4903 25ZM28.4903 3.10579C23.0781 3.10579 18.666 7.50919 18.666 12.9301C18.666 18.351 23.0694 22.7544 28.4903 22.7544C33.9024 22.7544 38.3146 18.351 38.3146 12.9301C38.3146 7.50919 33.9024 3.10579 28.4903 3.10579Z" fill="black"/>
<path d="M11.7366 10.6846H1.15794C0.535143 10.6846 0.0351562 10.1846 0.0351562 9.56178C0.0351562 8.93898 0.535143 8.439 1.15794 8.439H11.7366C12.3594 8.439 12.8594 8.93898 12.8594 9.56178C12.8594 10.1846 12.3506 10.6846 11.7366 10.6846Z" fill="black"/>
<path d="M11.7366 17.43H1.15794C0.535143 17.43 0.0351562 16.93 0.0351562 16.3072C0.0351562 15.6844 0.535143 15.1845 1.15794 15.1845H11.7366C12.3594 15.1845 12.8594 15.6844 12.8594 16.3072C12.8594 16.93 12.3506 17.43 11.7366 17.43Z" fill="black"/>
<path d="M55.8235 10.6846H45.2448C44.6221 10.6846 44.1221 10.1846 44.1221 9.56178C44.1221 8.93898 44.6221 8.439 45.2448 8.439H55.8148C56.4376 8.439 56.9376 8.93898 56.9376 9.56178C56.9376 10.1846 56.4376 10.6846 55.8235 10.6846Z" fill="black"/>
<path d="M55.8235 17.43H45.2448C44.6221 17.43 44.1221 16.93 44.1221 16.3072C44.1221 15.6844 44.6221 15.1845 45.2448 15.1845H55.8148C56.4376 15.1845 56.9376 15.6844 56.9376 16.3072C56.9376 16.93 56.4376 17.43 55.8235 17.43Z" fill="black"/>
<path d="M2.92098 12.1845C2.6666 12.1845 2.41222 12.0968 2.2017 11.9214L0.4035 10.4214C0.14912 10.2109 0 9.8951 0 9.553C0 9.21967 0.14912 8.90389 0.4035 8.6846L2.2017 7.18464C2.67537 6.78991 3.38588 6.85131 3.78938 7.32498C4.18411 7.79866 4.12271 8.50917 3.64903 8.91267L2.8859 9.54423L3.64903 10.1758C4.12271 10.5705 4.19288 11.281 3.78938 11.7635C3.56132 12.0442 3.24554 12.1845 2.92098 12.1845Z" fill="black"/>
<path d="M54.0162 18.93C53.6916 18.93 53.3758 18.7896 53.1478 18.5265C52.753 18.0528 52.8144 17.3423 53.2881 16.9388L54.0513 16.3072L53.2881 15.6757C52.8144 15.2809 52.7443 14.5704 53.1478 14.088C53.5425 13.6143 54.253 13.5441 54.7354 13.9476L56.5337 15.4476C56.788 15.6581 56.9371 15.9739 56.9371 16.316C56.9371 16.6493 56.788 16.9651 56.5337 17.1844L54.7354 18.6844C54.5337 18.8423 54.2705 18.93 54.0162 18.93Z" fill="black"/>
</svg>
