<svg width="58" height="39" viewBox="0 0 58 39" fill="none" xmlns="http://www.w3.org/2000/svg">
<path d="M15.9158 36.6022C15.2263 36.7671 14.5368 36.917 13.8623 37.1119C13.2478 37.2917 12.3185 36.872 12.1086 36.2875C11.8388 35.553 12.1986 34.6687 12.918 34.4589C13.6525 34.249 14.4169 34.0841 15.1813 33.9792C15.4811 33.9342 15.8258 34.1141 16.2005 34.1891C16.4404 33.7994 16.89 33.5445 17.4296 33.3947C17.4746 33.3797 17.5196 33.3497 17.5495 33.3647C18.1641 33.7094 18.5388 33.1099 19.0184 33.0049C20.4873 32.7052 21.9562 32.4504 23.4401 32.2105C24.4893 32.0457 25.5385 31.9258 26.6327 31.7759C26.6177 31.4311 26.5728 31.0414 26.5877 30.6367C26.6027 29.0179 26.6027 27.3992 26.6327 25.7804C26.6327 25.4656 26.5578 25.3457 26.258 25.2258C25.2388 24.8211 24.1446 24.5063 23.2303 23.8918C22.286 23.2623 21.4016 22.4529 20.7421 21.5386C19.8128 20.2645 19.3332 18.7507 19.1084 17.1618C19.0634 16.8321 19.0934 16.4874 19.1234 16.1576C19.1833 15.5131 19.7829 15.0334 20.5173 15.0334C21.6265 15.0334 22.6757 15.3332 23.6949 15.7529C24.8341 16.2176 25.8533 16.907 26.8126 17.6565C26.9625 17.7764 27.0524 17.9712 27.1723 18.1361C27.4721 18.5258 27.7569 18.9005 28.0117 19.2153C28.5363 18.5708 28.896 17.8663 29.4656 17.4466C30.8595 16.4274 32.3584 15.5281 34.0971 15.2133C34.5917 15.1234 35.1014 15.0334 35.611 15.0334C36.4653 15.0334 37.0649 15.693 36.9899 16.5473C36.7501 19.4701 35.566 21.9283 33.1828 23.667C32.2685 24.3265 31.1293 24.6712 30.0651 25.1059C29.3007 25.4206 29.4056 25.1808 29.4056 26.0202C29.4206 27.8338 29.4056 29.6475 29.4056 31.4161C34.6967 30.8766 40.0027 30.3519 45.3387 29.8123C45.3387 29.6325 45.3387 29.5126 45.3387 29.3777C45.3387 27.7589 45.3387 26.1401 45.3387 24.5213C45.3387 24.2215 45.2787 24.0866 44.934 23.9967C43.51 23.667 42.206 23.0824 41.1268 22.0782C40.5573 21.5535 39.9727 21.014 39.508 20.3844C38.6237 19.1554 38.1591 17.7464 37.8893 16.2625C37.8293 15.9627 37.7993 15.648 37.8143 15.3482C37.8293 14.3739 38.3389 13.8343 39.2982 13.8943C40.0926 13.9393 40.887 14.0892 41.6514 14.329C43.2402 14.8536 44.7091 15.618 45.8633 16.8771C46.1481 17.1918 46.4029 17.5516 46.6727 17.9113C47.1073 17.4916 47.497 17.1469 47.8418 16.7721C49.4156 15.0634 51.4541 14.284 53.6724 13.9093C53.7773 13.8943 53.8822 13.8943 53.9722 13.8943C55.2762 13.7594 55.9207 14.7936 55.7259 15.8878C55.486 17.2668 55.1563 18.6307 54.3919 19.8298C53.9272 20.5643 53.4626 21.3437 52.8031 21.8833C51.6489 22.8276 50.3299 23.562 48.861 23.9667C48.1116 24.1766 48.1266 24.1916 48.1266 24.971C48.1266 26.3499 48.1416 27.7439 48.1416 29.1229C48.1416 29.2278 48.1565 29.3177 48.1715 29.4826C49.1908 29.4076 50.195 29.3477 51.1843 29.2428C52.878 29.0779 54.5717 28.8681 56.2655 28.7182C57.5395 28.6132 58.3039 29.5575 57.8842 30.7117C57.8243 30.8616 57.7044 31.0414 57.5695 31.1014C57.0599 31.2962 56.5502 31.551 56.0106 31.611C53.6124 31.8358 51.2442 32.1656 48.876 32.6452C45.2337 33.3797 41.5915 34.0542 37.9492 34.7586C36.1805 35.1034 34.4119 35.4481 32.6432 35.7929C29.6155 36.3774 26.5877 36.962 23.56 37.5315C21.3717 37.9512 19.1833 38.3559 16.995 38.7456C16.2755 38.8805 15.661 38.4758 15.4061 37.8013C15.2263 37.3217 15.3012 37.0669 15.7059 36.7371C15.7509 36.7072 15.7959 36.6622 15.8408 36.6172C15.9158 36.6472 15.9158 36.6172 15.9158 36.6022ZM29.6305 22.4679C31.594 22.0032 33.6774 19.9048 33.7674 18.331C32.2535 18.3909 30.26 19.7849 29.6305 22.4679ZM45.2188 21.3287C44.4693 18.5558 42.5358 17.4017 40.917 17.0569C41.5465 19.2603 43.0004 20.6842 45.2188 21.3287ZM52.6682 17.0569C50.255 17.4916 48.951 19.4551 48.5463 21.0739C50.0301 21.2088 52.2934 19.0055 52.6682 17.0569ZM22.226 18.316C22.7356 20.2945 24.954 22.4379 26.4079 22.3779C25.8083 20.1146 23.7099 18.256 22.226 18.316Z" fill="black"/>
<path d="M8.4215 31.1014C8.4215 29.1229 8.40651 27.1444 8.43649 25.1508C8.43649 24.8061 8.34656 24.6712 8.01681 24.5363C6.98258 24.1316 5.93337 23.7569 4.98908 23.2023C3.87991 22.5578 2.95061 21.6135 2.29111 20.5043C1.4967 19.1703 1.04704 17.6865 0.867175 16.1426C0.732276 15.0484 1.42176 14.284 2.51594 14.359C3.83495 14.4489 5.10899 14.8086 6.26312 15.4531C7.0875 15.9178 7.8969 16.4274 8.63135 17.012C9.02105 17.3267 9.26087 17.8363 9.56065 18.256C9.65058 18.3609 9.7555 18.4659 9.87541 18.5858C10.1902 18.1361 10.43 17.6865 10.7597 17.3117C11.0445 16.997 11.3893 16.7122 11.734 16.4724C12.3785 16.0527 13.038 15.648 13.7125 15.2883C14.7617 14.7337 15.8859 14.4489 17.055 14.344C18.2841 14.239 19.0485 15.0934 18.7937 16.2925C18.5839 17.2668 18.3441 18.256 17.9843 19.1853C17.0101 21.7634 15.0315 23.2922 12.5284 24.2215C12.2137 24.3415 11.8989 24.4464 11.5691 24.5363C11.2844 24.6113 11.2094 24.7462 11.2094 25.0309C11.2244 26.6947 11.2244 28.3584 11.2244 30.0222C11.2244 30.262 11.2094 30.5018 11.1944 30.7866C11.5092 30.7417 11.809 30.6817 12.1087 30.6517C12.8432 30.5618 13.6825 31.1164 13.8924 31.8358C14.0573 32.4204 13.6376 33.1249 12.9181 33.3347C12.4235 33.4696 11.8839 33.5146 11.3743 33.5895C9.23089 33.8743 7.10249 34.1441 4.9591 34.4289C3.90989 34.5638 2.86068 34.7436 1.81147 34.8935C0.897155 35.0284 0.282614 34.6687 0.0427938 33.8743C-0.137071 33.2298 0.267624 32.4054 0.927129 32.2855C2.59088 31.9707 4.25463 31.7009 5.91838 31.4311C6.75775 31.2962 7.61211 31.2063 8.4215 31.1014ZM11.4492 21.6735C13.9224 21.1339 15.1664 19.2153 15.5711 17.6265C14.1922 17.6565 12.0488 19.1104 11.4492 21.6735ZM4.05978 17.6265C4.23964 19.3652 6.75775 21.7634 8.21166 21.5685C7.31233 19.0055 5.54367 17.6565 4.05978 17.6265Z" fill="black"/>
<path d="M28.4765 2.23306C28.4765 2.60778 28.4765 2.95252 28.4765 3.25229C28.9861 3.40218 29.4507 3.52209 29.9603 3.67198C29.8404 3.97176 29.7655 4.19659 29.6905 4.39144C29.2559 4.28652 28.8512 4.15162 28.4315 4.10665C27.6521 4.03171 27.1724 4.31649 27.0375 4.82611C26.9026 5.35072 27.1724 5.75541 27.8919 6.11514C28.3715 6.35496 28.8961 6.56481 29.3458 6.84959C30.1102 7.34422 30.38 8.1686 30.1252 8.99298C29.9304 9.6375 29.4657 10.0272 28.8512 10.267C28.7163 10.327 28.5664 10.357 28.4015 10.4019C28.4015 10.7766 28.4015 11.1364 28.4015 11.5261C28.1617 11.5261 27.9518 11.5261 27.682 11.5261C27.682 11.1664 27.682 10.8066 27.682 10.4469C27.3373 10.3869 27.0375 10.357 26.7528 10.267C26.483 10.1921 26.2281 10.0572 25.9434 9.93727C26.0333 9.66748 26.1082 9.44265 26.1982 9.20283C26.5579 9.32274 26.8876 9.45763 27.2324 9.56255C27.3823 9.60752 27.5322 9.62251 27.682 9.6375C28.4315 9.69745 29.031 9.3677 29.1959 8.81312C29.3608 8.25853 29.076 7.73393 28.3715 7.3742C27.9968 7.17934 27.5921 7.02946 27.2174 6.83461C26.4979 6.45989 25.9883 5.92029 26.0633 5.03596C26.1532 4.13663 26.7078 3.642 27.5472 3.40218C27.6071 3.38719 27.6671 3.3722 27.772 3.34223C27.772 2.9825 27.772 2.62277 27.772 2.21807C28.0118 2.23306 28.2216 2.23306 28.4765 2.23306Z" fill="black"/>
<path d="M28.0717 13.2348C24.5793 13.2348 21.7314 10.3869 21.7314 6.89456C21.7314 3.40219 24.5793 0.554321 28.0717 0.554321C31.5641 0.554321 34.4119 3.40219 34.4119 6.89456C34.4119 10.3869 31.579 13.2348 28.0717 13.2348ZM28.0717 1.52859C25.1189 1.52859 22.7057 3.92679 22.7057 6.89456C22.7057 9.86233 25.1039 12.2605 28.0717 12.2605C31.0245 12.2605 33.4377 9.86233 33.4377 6.89456C33.4377 3.92679 31.0395 1.52859 28.0717 1.52859Z" fill="black"/>
</svg>
