<svg width="50" height="51" viewBox="0 0 50 51" fill="none" xmlns="http://www.w3.org/2000/svg">
<path d="M25.0358 17.154C24.5557 17.154 24.1646 16.7628 24.1646 16.2827V14.3268C24.1646 13.8467 24.5557 13.4555 25.0358 13.4555C25.5159 13.4555 25.9071 13.8467 25.9071 14.3268V16.2827C25.9071 16.7628 25.5159 17.154 25.0358 17.154Z" fill="black"/>
<path d="M6.62322 26.8179C6.14313 26.8179 5.75195 26.4267 5.75195 25.9466C5.75195 15.3136 14.4024 6.66321 25.0354 6.66321C31.7655 6.66321 37.9088 10.086 41.4472 15.8204C41.705 16.2294 41.5717 16.7717 41.1627 17.0206C40.7537 17.2695 40.2114 17.1451 39.9625 16.7361C36.7352 11.5174 31.1609 8.40574 25.0354 8.40574C15.3626 8.40574 7.49449 16.2738 7.49449 25.9466C7.49449 26.4267 7.11219 26.8179 6.62322 26.8179Z" fill="black"/>
<path d="M25.0354 45.23C18.3053 45.23 12.162 41.8072 8.62362 36.0729C8.36579 35.6639 8.49915 35.1216 8.90811 34.8726C9.31708 34.6237 9.85939 34.7482 10.1083 35.1571C13.3356 40.3758 18.9099 43.4875 25.0354 43.4875C34.7083 43.4875 42.5763 35.6194 42.5763 25.9466C42.5763 25.4665 42.9675 25.0753 43.4476 25.0753C43.9277 25.0753 44.3189 25.4665 44.3189 25.9466C44.3189 36.5796 35.6684 45.23 25.0354 45.23Z" fill="black"/>
<path d="M45.6795 14.3979C45.6173 14.3979 45.5461 14.389 45.4839 14.3801L41.6521 13.5C41.1809 13.3933 40.8875 12.9221 40.9942 12.4509C41.1009 11.9797 41.5721 11.6863 42.0433 11.793L43.7414 12.1842C39.3761 6.22756 32.5305 2.72471 25.0358 2.72471C24.5557 2.72471 24.1646 2.33353 24.1646 1.85345C24.1646 1.37336 24.5557 0.982178 25.0358 0.982178C33.8641 0.982178 41.8655 5.50743 46.4352 13.0732C46.613 13.3755 46.6041 13.7489 46.3907 14.0334C46.2218 14.2645 45.964 14.3979 45.6795 14.3979Z" fill="black"/>
<path d="M25.0355 36.4818C21.7015 36.4818 18.9811 33.9214 18.9811 30.7742C18.9811 30.2941 19.3722 29.9029 19.8523 29.9029C20.3324 29.9029 20.7236 30.2941 20.7236 30.7742C20.7236 32.9612 22.6528 34.7304 25.0266 34.7304C27.4003 34.7304 29.3296 32.9523 29.3296 30.7742C29.3296 28.5871 27.4003 26.8179 25.0266 26.8179C21.6926 26.8179 18.9722 24.2574 18.9722 21.1102C18.9722 17.963 21.6838 15.4025 25.0266 15.4025C28.3605 15.4025 31.081 17.963 31.081 21.1102C31.081 21.5903 30.6898 21.9815 30.2097 21.9815C29.7296 21.9815 29.3385 21.5903 29.3385 21.1102C29.3385 18.9232 27.4092 17.154 25.0355 17.154C22.6617 17.154 20.7325 18.932 20.7325 21.1102C20.7325 23.2973 22.6617 25.0665 25.0355 25.0665C28.3694 25.0665 31.0899 27.6269 31.0899 30.7742C31.0899 33.9214 28.3694 36.4818 25.0355 36.4818Z" fill="black"/>
<path d="M25.0358 38.6956C24.5557 38.6956 24.1646 38.3044 24.1646 37.8243V16.2738C24.1646 15.7937 24.5557 15.4025 25.0358 15.4025C25.5159 15.4025 25.9071 15.7937 25.9071 16.2738V37.8154C25.9071 38.3044 25.5159 38.6956 25.0358 38.6956Z" fill="black"/>
<path d="M45.6879 14.3979C45.6523 14.3979 45.6079 14.3979 45.5634 14.389C45.0833 14.3179 44.7544 13.8822 44.8166 13.4022L45.3856 9.32143C45.4479 8.84134 45.8835 8.5124 46.3725 8.57463C46.8526 8.64575 47.1815 9.08138 47.1193 9.56147L46.5503 13.6422C46.488 14.0867 46.1146 14.3979 45.6879 14.3979Z" fill="black"/>
<path d="M37.4555 47.6216C37.2777 47.6216 37.0999 47.5683 36.9399 47.4527C36.6554 47.2482 36.522 46.8926 36.602 46.5458L37.4822 42.7141C37.5889 42.2429 38.0601 41.9495 38.5313 42.0562C39.0025 42.1628 39.2958 42.634 39.1892 43.1052L38.798 44.8033C44.7546 40.4381 48.2574 33.5924 48.2574 26.0978C48.2574 25.6177 48.6486 25.2265 49.1287 25.2265C49.6088 25.2265 50 25.6177 50 26.0978C50 34.926 45.4747 42.9274 37.9089 47.4882C37.7667 47.5771 37.6067 47.6216 37.4555 47.6216Z" fill="black"/>
<path d="M41.5362 48.1906C41.5006 48.1906 41.4562 48.1906 41.4117 48.1817L37.331 47.6127C36.8509 47.5416 36.522 47.1059 36.5842 46.6258C36.6464 46.1458 37.0821 45.8168 37.5711 45.879L41.6518 46.448C42.1319 46.5192 42.4608 46.9548 42.3986 47.4349C42.3363 47.8705 41.9629 48.1906 41.5362 48.1906Z" fill="black"/>
<path d="M24.9645 50.8933C16.1362 50.8933 8.13479 46.368 3.56509 38.8022C3.38728 38.5 3.39617 38.1266 3.60954 37.8421C3.81402 37.5576 4.16964 37.4242 4.50748 37.5042L8.33927 38.3844C8.81047 38.4911 9.10385 38.9623 8.99717 39.4335C8.89048 39.9047 8.41929 40.198 7.94809 40.0914L6.25001 39.7002C10.6152 45.6568 17.4609 49.1596 24.9556 49.1596C25.4356 49.1596 25.8268 49.5508 25.8268 50.0309C25.8357 50.5021 25.4445 50.8933 24.9645 50.8933Z" fill="black"/>
<path d="M3.75186 43.3008C3.70741 43.3008 3.67185 43.3008 3.6274 43.2919C3.14731 43.2208 2.81836 42.7852 2.8806 42.3051L3.44959 38.2244C3.51182 37.7443 3.95634 37.4153 4.43643 37.4776C4.91652 37.5487 5.24546 37.9843 5.18323 38.4644L4.61424 42.5451C4.55201 42.9808 4.17861 43.3008 3.75186 43.3008Z" fill="black"/>
<path d="M0.871268 26.649C0.391182 26.649 0 26.2578 0 25.7777C0 16.9495 4.52525 8.94805 12.091 4.38723C12.3933 4.20942 12.7667 4.21832 13.0512 4.43169C13.3357 4.63617 13.4691 4.99178 13.389 5.33851L12.5089 9.17031C12.4022 9.6415 11.931 9.93489 11.4598 9.8282C10.9886 9.72151 10.6952 9.25032 10.8019 8.77913L11.1931 7.08105C5.23649 11.4463 1.73364 18.2919 1.73364 25.7866C1.75142 26.2578 1.36024 26.649 0.871268 26.649Z" fill="black"/>
<path d="M12.5445 5.99641C12.5089 5.99641 12.4645 5.99641 12.42 5.98752L8.33931 5.41853C7.85923 5.34741 7.53028 4.91177 7.59251 4.43169C7.65475 3.9516 8.09038 3.62266 8.57935 3.68489L12.6601 4.25388C13.1402 4.325 13.4691 4.76064 13.4069 5.24072C13.3535 5.68524 12.9801 5.99641 12.5445 5.99641Z" fill="black"/>
</svg>
