<svg width="48" height="49" viewBox="0 0 48 49" fill="none" xmlns="http://www.w3.org/2000/svg">
<path d="M36.093 22.5028C37.1246 22.5028 37.9609 21.6665 37.9609 20.6348C37.9609 19.6032 37.1246 18.7669 36.093 18.7669C35.0614 18.7669 34.2251 19.6032 34.2251 20.6348C34.2251 21.6665 35.0614 22.5028 36.093 22.5028Z" fill="black"/>
<path d="M47.88 12.2174C47.8682 11.7209 47.8327 9.07272 45.6929 6.9329C45.3382 6.57823 43.4349 4.74578 40.4084 4.74578H37.9612V2.91334C37.9612 1.89663 37.1691 1.03361 36.1642 0.99814C35.1002 0.962673 34.2253 1.81387 34.2253 2.86605V4.73396H25.7133V2.91334C25.7133 1.89663 24.9212 1.03361 23.9164 0.99814C22.8524 0.962673 21.9775 1.81387 21.9775 2.86605V4.73396H13.5601V2.91334C13.5601 1.89663 12.768 1.03361 11.7631 0.99814C10.6991 0.962673 9.82427 1.81387 9.82427 2.86605V4.73396H7.48347C3.35751 4.73396 0 8.07965 0 12.2174V41.3829C0 41.8794 0.0472889 44.5276 2.18711 46.6674C3.87769 48.358 6.07662 48.7008 7.47165 48.8545C13.7374 48.8545 22.2494 48.8427 40.231 48.8545C40.5621 48.8663 44.2861 48.9491 46.3668 46.3009C47.8564 44.4093 47.9628 41.8085 47.9746 41.5602C47.9746 41.442 47.9746 41.3474 47.9746 41.2883C48.0219 31.4995 48.0101 22.0653 47.88 12.2174ZM3.74764 41.3947V12.2174C3.74764 10.1485 5.4264 8.48161 7.48347 8.48161H9.82427V10.3022C9.82427 11.3189 10.6164 12.182 11.6212 12.2174C12.6852 12.2529 13.5601 11.4017 13.5601 10.3495V8.48161H21.9775V10.3022C21.9775 11.3189 22.7696 12.182 23.7745 12.2174C24.8385 12.2529 25.7133 11.4017 25.7133 10.3495V8.48161H34.2253V10.3022C34.2253 11.3189 35.0174 12.182 36.0223 12.2174C37.0863 12.2529 37.9612 11.4017 37.9612 10.3495V8.48161H40.3965C42.4654 8.48161 44.1324 10.1604 44.1324 12.2174V41.4774C44.1324 43.4872 42.5009 45.1187 40.4911 45.1187H7.49529C5.4264 45.1305 3.74764 43.4517 3.74764 41.3947Z" fill="black"/>
<path d="M27.9597 22.5028C28.9913 22.5028 29.8276 21.6665 29.8276 20.6348C29.8276 19.6032 28.9913 18.7669 27.9597 18.7669C26.9281 18.7669 26.0918 19.6032 26.0918 20.6348C26.0918 21.6665 26.9281 22.5028 27.9597 22.5028Z" fill="black"/>
<path d="M19.8259 30.6365C20.8575 30.6365 21.6938 29.8002 21.6938 28.7685C21.6938 27.7369 20.8575 26.9006 19.8259 26.9006C18.7943 26.9006 17.958 27.7369 17.958 28.7685C17.958 29.8002 18.7943 30.6365 19.8259 30.6365Z" fill="black"/>
<path d="M11.6921 22.5028C12.7237 22.5028 13.56 21.6665 13.56 20.6348C13.56 19.6032 12.7237 18.7669 11.6921 18.7669C10.6605 18.7669 9.82422 19.6032 9.82422 20.6348C9.82422 21.6665 10.6605 22.5028 11.6921 22.5028Z" fill="black"/>
<path d="M11.6921 30.6365C12.7237 30.6365 13.56 29.8002 13.56 28.7685C13.56 27.7369 12.7237 26.9006 11.6921 26.9006C10.6605 26.9006 9.82422 27.7369 9.82422 28.7685C9.82422 29.8002 10.6605 30.6365 11.6921 30.6365Z" fill="black"/>
<path d="M11.6921 38.7702C12.7237 38.7702 13.56 37.9339 13.56 36.9022C13.56 35.8706 12.7237 35.0343 11.6921 35.0343C10.6605 35.0343 9.82422 35.8706 9.82422 36.9022C9.82422 37.9339 10.6605 38.7702 11.6921 38.7702Z" fill="black"/>
<path d="M19.8259 38.7702C20.8575 38.7702 21.6938 37.9339 21.6938 36.9022C21.6938 35.8706 20.8575 35.0343 19.8259 35.0343C18.7943 35.0343 17.958 35.8706 17.958 36.9022C17.958 37.9339 18.7943 38.7702 19.8259 38.7702Z" fill="black"/>
<path d="M19.8259 22.5028C20.8575 22.5028 21.6938 21.6665 21.6938 20.6348C21.6938 19.6032 20.8575 18.7669 19.8259 18.7669C18.7943 18.7669 17.958 19.6032 17.958 20.6348C17.958 21.6665 18.7943 22.5028 19.8259 22.5028Z" fill="black"/>
<path d="M36.093 30.6365C37.1246 30.6365 37.9609 29.8002 37.9609 28.7685C37.9609 27.7369 37.1246 26.9006 36.093 26.9006C35.0614 26.9006 34.2251 27.7369 34.2251 28.7685C34.2251 29.8002 35.0614 30.6365 36.093 30.6365Z" fill="black"/>
<path d="M27.9597 30.6365C28.9913 30.6365 29.8276 29.8002 29.8276 28.7685C29.8276 27.7369 28.9913 26.9006 27.9597 26.9006C26.9281 26.9006 26.0918 27.7369 26.0918 28.7685C26.0918 29.8002 26.9281 30.6365 27.9597 30.6365Z" fill="black"/>
<path d="M27.9597 38.7702C28.9913 38.7702 29.8276 37.9339 29.8276 36.9022C29.8276 35.8706 28.9913 35.0343 27.9597 35.0343C26.9281 35.0343 26.0918 35.8706 26.0918 36.9022C26.0918 37.9339 26.9281 38.7702 27.9597 38.7702Z" fill="black"/>
<path d="M36.093 38.7702C37.1246 38.7702 37.9609 37.9339 37.9609 36.9022C37.9609 35.8706 37.1246 35.0343 36.093 35.0343C35.0614 35.0343 34.2251 35.8706 34.2251 36.9022C34.2251 37.9339 35.0614 38.7702 36.093 38.7702Z" fill="black"/>
</svg>
