<svg width="56" height="59" viewBox="0 0 56 59" fill="none" xmlns="http://www.w3.org/2000/svg">
<path d="M8.65718 58.1699C8.46618 58.1012 8.26753 58.0324 8.08417 57.956C6.7777 57.4212 5.98312 56.4662 5.922 55.0374C5.86088 53.6775 5.91436 52.3099 5.8838 50.9499C5.87616 50.6749 5.77683 50.3464 5.61639 50.1324C4.21823 48.2912 3.48478 46.2436 3.53062 43.9133C3.56882 42.1179 3.53826 40.3148 3.53826 38.5194C3.53062 36.808 3.96611 35.2264 4.96697 33.8206C5.00517 33.7595 5.03573 33.6908 5.11978 33.5379C4.30992 33.5379 3.56882 33.5379 2.82008 33.5379C1.00171 33.5303 0.00848904 32.5447 0.00084885 30.7416C0.00084885 30.3826 -0.00679111 30.0235 0.0237697 29.6644C0.115452 28.5489 1.0552 27.5098 2.16302 27.4182C3.07985 27.3418 4.01959 27.3418 4.94405 27.4334C6.1512 27.5557 7.02983 28.1669 8.07653 29.3893C8.16057 29.2594 8.24462 29.1448 8.30574 29.015C9.55109 26.4249 10.7735 23.8273 12.0494 21.2525C13.0197 19.289 14.6624 18.3875 16.8246 18.3798C20.1786 18.3722 23.525 18.3798 26.879 18.3798C27.1006 18.3798 27.3145 18.3798 27.6049 18.3798C26.2143 13.9867 26.6498 9.88392 29.1787 6.10202C31.0888 3.23695 33.7552 1.36511 37.0863 0.463563C43.5499 -1.28604 50.3497 2.04508 53.1613 8.29476C56.1563 14.957 53.3829 23.0327 46.3921 26.3103C46.9116 27.3494 47.4312 28.3885 47.943 29.4199C48.0118 29.4046 48.0653 29.4122 48.0806 29.397C49.0967 27.9835 50.4949 27.4029 52.2063 27.464C52.6418 27.4793 53.0773 27.4564 53.5127 27.4716C54.8269 27.5251 55.843 28.4725 55.9652 29.779C56.0111 30.245 56.0034 30.7264 55.9882 31.2001C55.927 32.5829 54.8803 33.6067 53.4975 33.6373C52.5959 33.6526 51.6867 33.6373 50.7088 33.6373C50.8234 33.8206 50.8922 33.9505 50.9686 34.0651C51.8395 35.3945 52.3514 36.8385 52.3591 38.4353C52.3744 40.46 52.3744 42.4846 52.3591 44.5093C52.3438 46.595 51.6256 48.421 50.3573 50.0637C50.1663 50.3082 50.0441 50.6596 50.0365 50.9729C49.9983 52.0119 50.0212 53.051 50.0212 54.0977C50.0212 56.4738 49.4176 57.3601 47.2172 58.1776C45.6281 58.1776 44.0389 58.1776 42.4421 58.1776C39.8139 57.4517 39.4319 55.45 39.6687 53.1274C31.8222 53.1274 24.0751 53.1274 16.2897 53.1274C16.2897 53.7233 16.3127 54.2734 16.2821 54.8159C16.221 56.2217 15.5792 57.2607 14.2956 57.8796C14.0588 57.9942 13.8143 58.0782 13.5775 58.1776C11.9195 58.1699 10.2845 58.1699 8.65718 58.1699ZM28.0174 33.897C21.2559 33.897 14.5019 33.9047 7.74036 33.8894C7.29723 33.8894 6.99162 34.0269 6.72422 34.3555C6.02132 35.2035 5.53235 36.1585 5.3719 37.2434C5.28022 37.8776 5.2573 38.527 5.26494 39.1611C5.28022 41.224 5.19618 43.2945 5.39482 45.342C5.66223 48.0849 8.07653 51.3243 12.0112 51.1792C14.9603 51.0722 17.9171 51.1562 20.8739 51.1562C28.6363 51.1562 36.3987 51.1486 44.1612 51.1639C46.5373 51.1715 48.2869 50.1172 49.5551 48.1766C50.449 46.8166 50.7241 45.2733 50.7928 43.6994C50.8616 41.9574 50.8158 40.2155 50.8081 38.4735C50.8005 36.9684 50.3421 35.6161 49.387 34.4395C49.0814 34.0651 48.7682 33.8741 48.2487 33.8741C41.4947 33.9047 34.7561 33.897 28.0174 33.897ZM40.5855 25.638C47.0644 25.6686 52.4737 20.3128 52.5119 13.8263C52.5501 7.24805 47.2019 1.85408 40.6085 1.81588C34.0379 1.78532 28.7203 7.09525 28.6974 13.7193C28.6745 20.2211 34.0455 25.6074 40.5855 25.638ZM44.6425 26.8681C44.5432 26.8681 44.505 26.8604 44.4744 26.8681C38.5609 28.6941 31.7688 26.1957 28.621 20.542C28.5217 20.3663 28.2161 20.2135 28.0021 20.2058C26.5811 20.1753 25.16 20.1905 23.7466 20.1905C21.401 20.1905 19.0555 20.1829 16.7023 20.1905C15.3118 20.1982 14.2498 20.7712 13.6309 22.0395C12.8058 23.7203 12.0189 25.4164 11.2014 27.0973C10.3915 28.7705 9.56637 30.4437 8.74123 32.1245C21.5538 32.1245 34.3511 32.1245 47.2096 32.1245C46.331 30.3291 45.4829 28.5871 44.6425 26.8681ZM14.4943 52.9135C12.1335 52.86 9.78029 53.1962 7.6334 51.798C7.6334 52.9135 7.61048 53.8761 7.64104 54.8388C7.6716 55.6792 8.32866 56.321 9.192 56.3439C10.4373 56.3745 11.6903 56.3745 12.9357 56.3439C13.7532 56.3286 14.395 55.7709 14.479 54.961C14.5478 54.304 14.4943 53.6469 14.4943 52.9135ZM48.3098 51.9814C48.1952 52.0196 48.1188 52.0272 48.0577 52.0578C46.8047 52.7607 45.4447 53.0204 44.016 52.9899C43.2978 52.9746 42.5796 52.9899 41.8615 52.9822C41.617 52.9822 41.403 52.9899 41.4183 53.326C41.4412 53.8532 41.403 54.388 41.4642 54.9152C41.5558 55.7403 42.1518 56.321 42.9693 56.3439C44.2528 56.3745 45.544 56.3821 46.8276 56.3439C47.5916 56.321 48.2639 55.7174 48.2945 55.0069C48.348 54.006 48.3098 53.0128 48.3098 51.9814ZM4.50856 31.7119C5.13506 31.7119 5.75391 31.7196 6.38041 31.7119C6.90758 31.7043 7.12151 31.2994 6.86938 30.841C6.12828 29.4886 4.98225 29.0379 3.4695 29.0608C1.73517 29.0837 1.77337 29.3206 1.79629 30.818C1.80393 31.4904 2.0255 31.7043 2.68256 31.7119C3.30141 31.7196 3.90499 31.7119 4.50856 31.7119ZM51.4346 31.7119C52.0764 31.7119 52.7182 31.7272 53.3599 31.7043C53.9788 31.689 54.1469 31.4369 54.1469 30.6041C54.1545 29.3664 54.0323 29.1219 53.3676 29.0914C52.9932 29.0761 52.6112 29.1143 52.2368 29.0837C50.7852 28.9768 49.7843 29.6415 49.0891 30.8639C48.8217 31.3376 49.005 31.7043 49.5628 31.7119C50.1893 31.7196 50.8081 31.7119 51.4346 31.7119Z" fill="black"/>
<path d="M42.5488 43.3021C41.4334 43.3021 40.3179 43.3403 39.2024 43.2945C38.171 43.2486 37.7202 42.6756 37.7813 41.6518C37.8959 39.9328 38.8586 38.7562 40.5394 38.3589C42.1592 37.9769 43.7789 37.6178 45.4062 37.2893C46.9496 36.976 48.0574 37.9005 48.0574 39.4591C48.0574 40.0856 48.065 40.7045 48.0574 41.3309C48.0345 42.5075 47.4538 43.2028 46.2772 43.2716C45.0319 43.348 43.7865 43.2868 42.5412 43.2868C42.5488 43.2945 42.5488 43.2945 42.5488 43.3021ZM39.6914 41.5678C41.8001 41.5678 43.9164 41.5754 46.0251 41.5525C46.1321 41.5525 46.3154 41.3615 46.3231 41.2545C46.3536 40.6357 46.346 40.0092 46.3307 39.3827C46.3231 39.0924 46.1703 38.9166 45.8494 38.9931C44.1533 39.3674 42.4571 39.7265 40.7687 40.1314C40.1116 40.2919 39.7296 40.8725 39.6914 41.5678Z" fill="black"/>
<path d="M13.3788 43.5008C12.1106 43.4396 10.8423 43.4549 9.58931 43.2945C8.3134 43.134 7.88555 42.5228 7.87791 41.2469C7.87791 40.6433 7.87027 40.0321 7.87791 39.4285C7.90847 37.9769 8.97045 37.0219 10.3839 37.2816C12.1488 37.6102 13.906 37.9998 15.6403 38.4582C17.1837 38.8632 18.2227 40.4294 18.1616 42.0415C18.131 42.8666 17.6574 43.3709 16.7329 43.4091C15.6174 43.4549 14.502 43.4167 13.3865 43.4167C13.3865 43.4396 13.3865 43.4702 13.3788 43.5008ZM16.3814 41.5372C16.2439 40.6662 15.8008 40.1696 14.9527 39.9786C13.3712 39.6195 11.782 39.2987 10.2005 38.9319C9.73447 38.825 9.61223 39.0236 9.61223 39.4209C9.60459 39.971 9.63515 40.5211 9.60459 41.0635C9.58167 41.4608 9.73447 41.5907 10.1241 41.5831C12.0342 41.5678 13.9442 41.5754 15.8543 41.5754C16.0147 41.5754 16.1828 41.5525 16.3814 41.5372Z" fill="black"/>
<path d="M27.9794 44.3488C25.9929 44.3488 24.0065 44.3565 22.02 44.3488C21.3019 44.3488 20.9198 43.9745 20.981 43.3785C21.0344 42.9048 21.3095 42.6145 21.7832 42.561C22.1041 42.5228 22.425 42.5381 22.7459 42.5381C26.3215 42.5381 29.8894 42.5381 33.465 42.5381C33.656 42.5381 33.8471 42.5305 34.0304 42.5457C34.634 42.5916 34.9778 42.9354 34.9625 43.4702C34.9472 43.9897 34.5805 44.3488 33.9846 44.3565C31.9905 44.3565 29.9811 44.3488 27.9794 44.3488Z" fill="black"/>
<path d="M27.9258 48.0696C25.9776 48.0696 24.0293 48.0696 22.0811 48.0696C21.3629 48.0696 21.0038 47.7793 20.9809 47.2139C20.9656 46.6409 21.3782 46.2589 22.0734 46.2589C26.0081 46.2512 29.9428 46.2512 33.8699 46.2589C34.5957 46.2589 34.9853 46.6027 34.9701 47.1833C34.9548 47.7334 34.5575 48.0696 33.8775 48.0696C31.8911 48.0772 29.9046 48.0696 27.9258 48.0696Z" fill="black"/>
<path d="M39.5617 14.4833C39.2408 14.3687 38.9123 14.277 38.6067 14.1472C36.9564 13.4213 35.9097 11.7558 35.9708 9.99089C36.0396 8.1114 37.1779 6.52224 38.981 5.93395C39.5082 5.75822 39.6686 5.52138 39.5999 5.01713C39.577 4.81084 39.5922 4.59691 39.6228 4.39827C39.6992 3.91694 39.9972 3.65717 40.4785 3.64953C40.9751 3.64189 41.4335 3.93222 41.3648 4.40591C41.212 5.5061 41.8155 5.80407 42.6789 6.20136C44.1993 6.90425 44.9633 8.24129 45.0397 9.92977C45.0703 10.5868 44.7647 10.9688 44.2222 11.007C43.7027 11.0452 43.2825 10.6785 43.2443 10.052C43.1602 8.88306 42.6254 8.06556 41.4794 7.56895C41.4565 7.76759 41.4182 7.90512 41.4182 8.04264C41.4182 9.54012 41.4182 11.03 41.4106 12.5274C41.4106 12.8101 41.4335 12.9935 41.785 13.1004C43.7944 13.704 45.0168 15.3008 45.0397 17.3102C45.0703 19.2966 43.8555 20.9469 41.8767 21.604C41.7315 21.6498 41.594 21.7033 41.403 21.7721C41.403 22.1464 41.4183 22.5208 41.403 22.8952C41.38 23.4758 41.0592 23.8044 40.5396 23.8196C40.043 23.8273 39.6534 23.4911 39.6075 22.9487C39.577 22.5743 39.5999 22.1923 39.5999 21.795C39.4394 21.7339 39.3096 21.6727 39.172 21.6345C37.2925 21.0615 36.093 19.5411 35.9708 17.6005C35.9326 16.9358 36.2076 16.5462 36.7425 16.4851C37.3231 16.4239 37.7051 16.7525 37.7662 17.4248C37.8808 18.5555 38.4157 19.3578 39.5464 19.8238C39.5617 17.9902 39.5617 16.2482 39.5617 14.4833ZM41.4488 19.862C42.74 19.3348 43.3818 18.1965 43.1984 16.89C43.0533 15.8815 42.2969 15.0181 41.4488 14.9188C41.4488 16.5538 41.4488 18.1735 41.4488 19.862ZM39.5693 12.6497C39.5693 10.9536 39.5693 9.30327 39.5693 7.63771C38.5837 7.9204 37.8579 8.89834 37.7968 9.97561C37.728 11.0452 38.4462 12.1531 39.5693 12.6497Z" fill="black"/>
</svg>
