<svg width="50" height="52" viewBox="0 0 50 52" fill="none" xmlns="http://www.w3.org/2000/svg">
<path d="M0 51.3608C0 51.2082 0 51.0953 0 50.9891C0 42.9434 4.05073e-07 34.8978 0.00663875 26.8521C0.00663875 26.6463 0.0796607 26.414 0.192513 26.248C2.88104 22.2849 6.52549 19.6561 11.2454 18.7467C17.1734 17.6049 22.3779 19.2047 26.7193 23.4001C29.6136 26.2015 31.2998 29.6601 31.9105 33.6431C32.9527 40.4341 30.0385 47.3513 24.4888 51.2148C24.3428 51.3144 24.1436 51.3808 23.9711 51.3808C16.098 51.3874 8.22491 51.3874 0.351832 51.3874C0.252257 51.3741 0.139405 51.3675 0 51.3608Z" fill="black"/>
<path d="M49.8673 30.8351C39.9032 20.5855 29.9722 10.3757 20.0081 0.132767C13.3432 6.98354 6.69819 13.821 0.0200195 20.6851C0.0200195 13.7613 0.0200195 6.8906 0.0200195 0C16.669 0 33.3047 0 49.9735 0C49.9802 0.11949 49.9935 0.238981 49.9935 0.351832C49.9935 17.2398 49.9935 34.1211 50.0001 51.009C50.0001 51.2546 49.9802 51.3874 49.6682 51.3874C43.1693 51.3808 36.6769 51.3808 30.178 51.3808C30.1116 51.3808 30.0386 51.3741 29.8992 51.3675C36.5707 44.5035 43.2024 37.6859 49.8673 30.8351Z" fill="black"/>
</svg>
