<svg width="50" height="47" viewBox="0 0 50 47" fill="none" xmlns="http://www.w3.org/2000/svg">
<path d="M23.7481 31.7862C23.7481 36.1926 23.7481 40.5401 23.7481 44.9563C24.3075 44.6325 24.8473 44.3675 25.3282 44.0339C26.3193 43.3469 27.2811 42.6207 28.2527 41.8944C28.5078 41.708 28.7826 41.5902 29.077 41.7472C29.342 41.8846 29.4892 42.1398 29.4205 42.4342C29.3812 42.6109 29.2635 42.8071 29.1163 42.9151C28.184 43.6217 27.232 44.2988 26.2801 44.9858C26.2114 45.0349 26.1427 45.0839 26.074 45.1232C26.0838 45.1526 26.0936 45.1919 26.1034 45.2213C26.7413 45.1035 27.3792 44.9858 28.0073 44.8484C29.5579 44.5245 30.9907 43.9063 32.4333 43.2782C32.5315 43.2291 32.6394 43.1899 32.7474 43.1604C33.081 43.0721 33.3951 43.2095 33.5227 43.5039C33.6601 43.8081 33.5717 44.2007 33.2577 44.3381C32.4824 44.6914 31.6973 45.0545 30.8926 45.3391C27.5853 46.5167 24.1799 47.0172 20.6666 46.6149C17.2318 46.2223 14.0325 45.1134 11.0491 43.3371C7.76148 41.3841 5.23933 38.6853 3.25695 35.4664C1.68674 32.9246 0.734808 30.1473 0.283374 27.1934C-0.560612 21.7173 0.489462 16.6141 3.31583 11.8545C4.91548 9.15566 7.02544 6.91812 9.53777 5.0535C12.7076 2.708 16.2602 1.34389 20.1563 0.8532C25.6226 0.156421 30.6767 1.38314 35.3578 4.23895C38.4296 6.11339 40.8241 8.67479 42.728 11.6974C42.7967 11.8054 42.8556 11.9133 42.9046 12.0213C43.0617 12.355 42.9635 12.7083 42.6887 12.8751C42.3943 13.0517 42.0508 13.0027 41.8349 12.6886C41.4031 12.0802 41.0008 11.4521 40.5788 10.8338C40.5199 10.7553 40.461 10.6768 40.3531 10.5492C35.6523 14.8378 30.029 16.7712 23.7579 17.1245C23.7481 17.1931 23.7383 17.2618 23.7383 17.3305C23.7383 19.1068 23.7481 20.8733 23.7383 22.6496C23.7383 22.9342 23.7972 23.0422 24.1014 23.0324C25.0828 23.0127 26.074 23.0225 27.0554 23.0225C27.232 23.0225 27.4087 23.0127 27.5755 23.0324C27.9484 23.0814 28.1545 23.3268 28.1545 23.6899C28.1545 24.0334 27.9582 24.2591 27.5853 24.318C27.4283 24.3376 27.2615 24.3376 27.1045 24.3376C26.0936 24.3278 25.0828 24.3278 24.072 24.318C23.8266 24.318 23.7187 24.3768 23.7187 24.6516C23.7383 26.477 23.7383 28.2925 23.7383 30.1179C23.7383 30.3829 23.8365 30.4319 24.0818 30.4516C25.1122 30.5301 26.1427 30.6479 27.1731 30.7558C27.2909 30.7656 27.4185 30.7951 27.5363 30.8441C27.8503 30.9717 27.9877 31.2269 27.9484 31.5605C27.9092 31.8746 27.654 32.0905 27.3203 32.0807C26.9867 32.0708 26.653 32.0021 26.3193 31.9727C25.4655 31.9138 24.6216 31.8549 23.7481 31.7862ZM23.7383 2.30564C23.7383 2.95335 23.7383 3.50292 23.7383 4.06231C23.7383 7.84061 23.7383 11.6189 23.7285 15.3972C23.7285 15.6229 23.7383 15.7702 24.0524 15.7505C27.3302 15.5935 30.4902 14.9458 33.4736 13.5228C33.6895 13.4148 33.9152 13.3167 34.1507 13.1989C31.8936 8.38037 28.4784 4.75908 23.7383 2.30564ZM22.384 24.3965C22.2859 24.3768 22.2564 24.3572 22.2172 24.3572C18.2622 24.3474 14.3171 24.3474 10.3621 24.3278C10.0873 24.3278 10.0088 24.4161 10.0481 24.6811C10.1266 25.3484 10.1855 26.0157 10.2542 26.6929C10.4701 28.744 10.9706 30.7362 11.687 32.6695C11.7753 32.8952 11.8833 32.9639 12.1286 32.8461C15.0335 31.4624 18.1052 30.7558 21.2947 30.5006C21.648 30.4712 22.0111 30.4516 22.3742 30.4221C22.384 28.4005 22.384 26.4083 22.384 24.3965ZM12.2954 13.2873C15.4555 14.8771 18.8118 15.6426 22.384 15.7113C22.384 11.2853 22.384 6.9083 22.384 2.51173C19.4889 3.24776 13.6596 9.4697 12.2954 13.2873ZM22.4233 17.1245C20.5292 17.0656 18.7235 16.8006 16.9374 16.3786C15.1414 15.9468 13.4142 15.3187 11.7655 14.5532C11.7164 14.5925 11.7066 14.5925 11.6968 14.6023C10.6369 17.2324 10.156 19.9803 10.0481 22.8066C10.0383 23.0225 10.1462 23.0422 10.3229 23.0422C14.2386 23.0422 18.1543 23.0422 22.0798 23.052C22.3251 23.052 22.3938 22.9833 22.3938 22.7379C22.3938 21.5308 22.4135 20.3139 22.4233 19.1068C22.4331 18.4493 22.4233 17.8016 22.4233 17.1245ZM12.374 34.2103C14.5821 38.8522 17.8697 42.3361 22.3938 44.7699C22.3938 40.3929 22.3938 36.1141 22.3938 31.8157C18.8805 31.8746 15.5732 32.6695 12.374 34.2103ZM8.67416 24.3474C8.47788 24.3474 8.33068 24.3474 8.18347 24.3474C6.02444 24.3572 3.87522 24.3572 1.71619 24.367C1.5101 24.367 1.3727 24.367 1.38252 24.6614C1.51009 27.2425 2.03023 29.7352 3.04105 32.1297C3.67894 33.6411 4.47386 35.0542 5.43561 36.3791C5.56319 36.5557 5.69077 36.7324 5.81835 36.8894C5.89686 36.86 5.9263 36.86 5.94593 36.8502C7.31986 35.6333 8.81155 34.5734 10.4112 33.6607C10.4897 33.6116 10.5388 33.4055 10.5093 33.3074C10.3131 32.6793 10.0579 32.0708 9.88125 31.4329C9.22373 29.1365 8.76248 26.791 8.67416 24.3474ZM8.65453 23.0324C8.68397 22.6398 8.72323 22.2865 8.74285 21.9234C8.90969 19.2933 9.42982 16.7417 10.3818 14.2883C10.4995 13.9939 10.421 13.8859 10.1855 13.7289C8.95876 12.8947 7.75166 12.0409 6.54457 11.1773C6.28941 10.9908 6.06369 10.7553 5.81835 10.5394C5.75946 10.5983 5.72021 10.6375 5.69077 10.6768C4.66032 12.0998 3.80652 13.6406 3.09012 15.2402C2.02041 17.625 1.5101 20.1373 1.39233 22.7379C1.38252 22.9735 1.45121 23.0422 1.67693 23.0422C3.99298 23.0323 6.30904 23.0324 8.65453 23.0324ZM20.382 45.2213C18.3506 43.9848 16.5644 42.4833 15.0335 40.6775C13.5025 38.8816 12.1777 36.9483 11.157 34.7991C9.50833 35.6921 8.04608 36.7324 6.72122 37.9689C10.4406 42.0515 14.9648 44.4951 20.382 45.2213ZM20.068 2.31545C20.0582 2.28601 20.0385 2.26639 20.0287 2.23694C19.9306 2.24676 19.8324 2.22713 19.7343 2.25657C18.4192 2.59024 17.0748 2.81596 15.799 3.26739C12.3445 4.49411 9.39057 6.51575 6.90768 9.22436C6.69177 9.45989 6.67215 9.59728 6.9273 9.78374C8.03626 10.5885 9.13541 11.403 10.2542 12.1979C10.4897 12.3746 10.7547 12.512 11.0197 12.6788C13.1689 8.41963 15.9265 4.75909 20.068 2.31545ZM26.4469 2.32527C30.5 4.80815 33.2479 8.40981 35.3382 12.5905C36.8397 11.6974 38.2235 10.7259 39.4993 9.54821C35.9761 5.57363 31.658 3.13 26.4469 2.32527Z" fill="black"/>
<path d="M38.626 29.588C38.626 24.2983 38.626 19.0087 38.626 13.7191C38.626 13.513 38.6358 13.2873 38.6947 13.091C38.783 12.7671 39.0185 12.5905 39.362 12.6297C39.6957 12.6592 39.9312 12.8358 39.9705 13.1793C40.0097 13.5719 40.0293 13.9742 40.0293 14.3766C40.0293 24.4259 40.0293 34.485 40.0293 44.5344C40.0293 45.0054 40.049 45.4863 40.0097 45.9574C39.9607 46.5069 39.4602 46.8013 39.0283 46.5364C38.8713 46.4382 38.7339 46.2321 38.6849 46.0457C38.6162 45.8003 38.6358 45.5256 38.6358 45.2704C38.626 40.0396 38.626 34.8089 38.626 29.588Z" fill="black"/>
<path d="M49.9998 35.0052C49.9213 37.9689 48.9301 40.4028 46.4374 42.0613C45.2499 42.8562 43.925 43.3076 42.5217 43.5432C42.1978 43.602 41.8838 43.6511 41.5599 43.6707C41.1674 43.7002 40.9122 43.4941 40.8631 43.1408C40.8042 42.7581 40.9809 42.4833 41.3734 42.4048C42.453 42.2085 43.5227 41.9926 44.5335 41.5313C47.2421 40.2948 48.6455 38.1947 48.6356 35.2014C48.6356 34.436 48.5768 33.6509 48.3903 32.905C48.0566 31.59 47.193 30.638 46.0546 29.9118C44.6611 29.0286 43.1399 28.4594 41.5697 28.0079C41.3146 27.9392 41.03 27.7528 40.9122 27.5369C40.8239 27.3799 40.9024 27.0069 41.0496 26.8695C41.2066 26.7223 41.5501 26.6536 41.7562 26.7223C42.8848 27.0756 44.0134 27.4387 45.1027 27.8804C46.3294 28.3711 47.4089 29.1169 48.302 30.1081C49.2932 31.2072 49.7839 32.5125 49.9311 33.9649C49.9605 34.3477 49.9801 34.7108 49.9998 35.0052Z" fill="black"/>
<path d="M29.1259 24.2591C29.1554 21.2168 30.4802 18.8909 33.0318 17.2422C34.1604 16.516 35.4068 16.1038 36.7218 15.9076C37.1929 15.8389 37.5167 16.0253 37.5952 16.3982C37.6737 16.8104 37.4578 17.0852 36.9966 17.2324C36.0348 17.5268 35.0142 17.7035 34.131 18.1647C32.1486 19.205 30.9022 20.8635 30.5489 23.1207C30.3527 24.3278 30.4312 25.5349 30.8041 26.7027C31.3439 28.3711 32.5804 29.4113 34.1015 30.1277C34.8768 30.4908 35.7012 30.746 36.5059 31.0502C36.7611 31.1484 37.026 31.2269 37.2714 31.3348C37.5756 31.4722 37.6247 31.747 37.556 32.0316C37.4873 32.3162 37.3008 32.483 36.9966 32.4929C36.8592 32.4929 36.7218 32.483 36.5942 32.4438C35.2497 32.0414 33.9053 31.5998 32.6785 30.8932C30.6176 29.6959 29.4792 27.8902 29.1946 25.5251C29.1652 25.2895 29.1358 25.054 29.1259 24.8185C29.1161 24.632 29.1259 24.4455 29.1259 24.2591Z" fill="black"/>
<path d="M32.2564 35.8492C31.432 36.86 30.5979 37.8708 29.7343 38.9307C30.274 39.3134 30.7647 39.6962 31.2946 40.0396C32.9728 41.1093 34.7785 41.8552 36.7413 42.1987C36.7806 42.2085 36.8198 42.2085 36.8492 42.2183C37.4086 42.3361 37.6442 42.601 37.5657 43.0328C37.497 43.445 37.1437 43.6119 36.5941 43.5137C33.5813 42.9642 30.8628 41.7767 28.5664 39.706C27.9972 39.1957 27.9678 38.8816 28.4486 38.3124C29.4497 37.1053 30.4605 35.8982 31.4713 34.7009C31.8933 34.2004 32.1877 34.1612 32.6882 34.5439C34.0621 35.594 35.4949 36.5165 37.1535 37.0661C37.497 37.1838 37.6638 37.5568 37.546 37.8806C37.4283 38.2045 37.1437 38.3615 36.7609 38.2634C35.5146 37.9395 34.4252 37.2918 33.3457 36.6048C33.0022 36.3791 32.6588 36.1239 32.2564 35.8492Z" fill="black"/>
<path d="M47.5957 19.8429C45.947 18.7143 44.2296 17.8016 42.257 17.4189C41.9724 17.36 41.6878 17.3305 41.413 17.2717C41.0107 17.1931 40.7457 16.83 40.8046 16.4669C40.8733 16.1136 41.2167 15.8683 41.6289 15.9468C42.1883 16.0449 42.7575 16.1431 43.3071 16.3001C45.2698 16.8595 47.0854 17.7133 48.6752 18.9989C49.2739 19.4896 49.3033 19.6859 48.8715 20.3139C47.9784 21.6192 47.0756 22.9244 46.1727 24.2198C45.8194 24.7301 45.5642 24.7988 45.0441 24.4652C43.8665 23.7095 42.6594 23.0225 41.3345 22.5613C40.8831 22.4043 40.7162 22.0215 40.8733 21.6486C41.0107 21.3149 41.3541 21.1972 41.7958 21.3444C42.944 21.7271 44.0333 22.2473 45.0441 22.9244C45.2698 23.0814 45.3876 23.0618 45.5446 22.8361C46.1727 21.9136 46.8302 21.0009 47.4681 20.0784C47.527 19.9999 47.5564 19.9312 47.5957 19.8429Z" fill="black"/>
<path d="M44.3571 35.6921C44.3669 37.0857 43.0911 38.4596 41.5798 38.597C41.2068 38.6265 40.9124 38.4106 40.8339 38.0671C40.7652 37.753 40.9615 37.439 41.2952 37.3114C41.5994 37.2035 41.9036 37.0955 42.198 36.9777C43.199 36.5754 43.3266 34.75 42.2569 34.2888C41.9527 34.1514 41.6583 33.9944 41.354 33.8472C40.9026 33.6312 40.7162 33.2681 40.8732 32.8952C41.0204 32.5517 41.4129 32.4242 41.8742 32.6204C42.306 32.8069 42.7378 33.0228 43.1303 33.2681C43.9743 33.8079 44.3276 34.6126 44.3571 35.6921Z" fill="black"/>
<path d="M34.73 23.8175C34.73 22.6202 35.5347 21.4916 36.6535 21.1579C37.1049 21.0205 37.3993 21.1383 37.5465 21.5112C37.6839 21.8743 37.5465 22.1785 37.1344 22.3748C36.2413 22.8066 35.9665 23.3464 36.1628 24.2591C36.2806 24.8185 36.7026 25.0638 37.154 25.2895C37.5858 25.5152 37.7232 25.8685 37.5171 26.2316C37.3503 26.5261 37.0558 26.6536 36.7124 26.5064C35.4562 25.9961 34.7889 25.2797 34.73 23.8175Z" fill="black"/>
</svg>
