<svg width="75" height="75" viewBox="0 0 75 75" fill="none" xmlns="http://www.w3.org/2000/svg">
<path d="M37.4806 74.9611C58.1805 74.9611 74.9611 58.1805 74.9611 37.4806C74.9611 16.7806 58.1805 0 37.4806 0C16.7806 0 0 16.7806 0 37.4806C0 58.1805 16.7806 74.9611 37.4806 74.9611Z" fill="url(#paint0_linear_72_31)"/>
<path d="M17.2004 58.788L20.281 47.2358C18.484 44.1552 17.4572 40.5611 17.4572 36.7104C17.4572 24.9015 27.2124 15.1462 39.0213 15.1462C50.8302 15.1462 60.5855 24.9015 60.5855 36.7104C60.5855 48.5193 50.8302 58.2746 39.0213 58.2746C35.4273 58.2746 31.8332 57.2477 28.7526 55.7074L17.2004 58.788ZM29.5228 51.3432L30.293 51.8567C33.1168 53.397 36.1974 54.4238 39.278 54.4238C49.0332 54.4238 56.7347 46.4656 56.7347 36.9671C56.7347 27.4686 48.7765 19.5104 39.278 19.5104C29.5228 19.5104 21.8213 27.4686 21.8213 36.9671C21.8213 40.0477 22.5915 43.385 24.3885 45.9522L24.9019 46.7223L23.1049 53.1402L29.5228 51.3432Z" fill="white"/>
<path fill-rule="evenodd" clip-rule="evenodd" d="M47.236 39.5344C46.4659 39.021 45.1823 38.5076 44.1554 38.7643C43.3852 39.021 42.8718 40.3046 42.3584 41.0747C42.1017 41.3315 41.845 41.3314 41.3315 41.3314C38.2509 40.0479 35.9405 37.9942 34.4002 35.427C34.1435 34.9136 34.1435 34.6568 34.4002 34.1434C34.9136 33.63 35.4271 32.8598 35.6838 32.0897C35.9405 31.3195 35.427 30.2927 35.1703 29.7792C34.6569 28.7524 34.4002 27.4688 33.3733 26.9553C32.6032 26.4419 31.3196 26.6986 30.8062 27.4688C29.5226 28.4957 29.0092 30.0359 29.0092 31.833C29.0092 32.3464 29.0092 32.8598 29.2659 33.1165C29.5226 34.1434 30.036 35.1703 30.5495 36.1971C31.0629 36.9673 31.3196 37.4807 31.833 38.2509C33.3733 40.5613 35.427 42.3583 37.7375 43.6419C39.0211 44.412 40.048 44.9255 41.3315 45.4389C42.8718 45.9524 44.1554 46.4658 45.6957 46.2091C47.236 45.9523 49.033 44.9255 49.5464 43.3852C49.8032 42.8718 49.8032 42.3583 49.8032 41.8449C49.2897 40.818 48.0062 40.0479 47.236 39.5344Z" fill="white"/>
<defs>
<linearGradient id="paint0_linear_72_31" x1="64.0016" y1="10.9602" x2="10.9184" y2="64.0432" gradientUnits="userSpaceOnUse">
<stop stop-color="#60FC7C"/>
<stop offset="1" stop-color="#4AB161"/>
</linearGradient>
</defs>
</svg>
